<?xml version="1.0" encoding="UTF-8"?>
<svg version="1.1" xmlns="http://www.w3.org/2000/svg" width="515" height="484">
<path d="M0 0 C5.02345589 0.00261334 10.04691038 0.00016258 15.07036638 -0.00138617 C23.47502273 -0.0031803 31.87967015 -0.00087311 40.28432512 0.00395441 C49.90322894 0.0094167 59.52211161 0.00760889 69.14101493 0.00212801 C77.52790182 -0.00245318 85.91478246 -0.00303024 94.30167019 -0.00043333 C99.25564315 0.00109908 104.20960625 0.0014089 109.16357851 -0.00196981 C127.18085263 -0.01247168 145.19283784 0.00981321 163.20375872 0.53325129 C164.43420097 0.56568871 165.66464323 0.59812613 166.93237162 0.6315465 C180.70528196 1.09887638 193.48593471 3.46995639 205.69741106 10.1343255 C206.5108095 10.55198175 207.32420794 10.969638 208.16225481 11.3999505 C226.21297869 21.32357121 239.16251626 38.85065349 245.69741106 58.1343255 C247.27840292 64.67341962 248.06996025 71.074716 248.31807756 77.78741693 C248.35578398 78.68896905 248.3934904 79.59052116 248.43233943 80.51939303 C248.83922644 91.23970017 248.8097859 101.95876133 248.766747 112.68486261 C248.76149802 114.9607813 248.75667375 117.23670099 248.75223589 119.5126214 C248.73873953 125.62578305 248.718296 131.7389008 248.6956706 137.85203481 C248.6817143 141.6813591 248.66910847 145.51068558 248.65692186 149.34001589 C248.62283151 159.98402444 248.58708205 170.62802169 248.54382753 181.27199697 C248.54107949 181.94869099 248.53833144 182.62538501 248.53550012 183.3225849 C248.52992589 184.69371561 248.52435111 186.06484633 248.51877579 187.43597703 C248.51601156 188.11639541 248.51324733 188.79681378 248.51039934 189.49785089 C248.50624556 190.51974894 248.50624556 190.51974894 248.50200787 191.56229139 C248.45739779 202.62540735 248.42638023 213.68851651 248.40119955 224.75169211 C248.3750381 236.16334444 248.33750141 247.5749011 248.28937984 258.98648506 C248.26268042 265.37277136 248.2406305 271.75898952 248.23036242 278.14532518 C248.22038333 284.14480196 248.19622129 290.14406005 248.16142893 296.14344263 C248.15109428 298.33547725 248.14572006 300.52754218 248.14586115 302.71960115 C248.14064608 328.96481664 242.62308592 349.89686029 223.69741106 369.1343255 C222.92526262 369.91936457 222.15311419 370.70440363 221.35756731 371.51323175 C206.22766558 386.00556874 186.01809926 391.47407004 165.48432207 391.39502192 C164.41082705 391.39884746 163.33733203 391.40267301 162.23130685 391.40661448 C158.66356077 391.41686578 155.095978 391.41296734 151.52822161 391.40898371 C148.95821278 391.41333455 146.38820525 391.41851893 143.81819963 391.42447138 C137.57921827 391.43717436 131.34028004 391.43901757 125.10128792 391.43667112 C120.02586473 391.43488275 114.95045455 391.43664866 109.8750329 391.44089556 C109.15064541 391.44149075 108.42625791 391.44208594 107.67991928 391.44269916 C106.20796539 391.44391101 104.7360115 391.44512514 103.26405761 391.44634154 C89.48184617 391.45720025 75.69965923 391.45506258 61.91744641 391.44895669 C49.33401245 391.44378974 36.75065595 391.45504009 24.1672373 391.47405491 C11.21913206 391.49346947 -1.72893661 391.50168293 -14.67705649 391.49793166 C-21.93541638 391.496025 -29.19371037 391.49845464 -36.45205832 391.5126462 C-43.28033429 391.52586274 -50.10845328 391.52325102 -56.93672895 391.51023531 C-59.43515975 391.5078767 -61.93360153 391.5105784 -64.43201971 391.51885843 C-88.57336269 391.59306361 -88.57336269 391.59306361 -100.30258894 388.1343255 C-101.02146441 387.93707534 -101.74033989 387.73982517 -102.48099947 387.53659773 C-123.01464621 381.557884 -138.94728379 366.48910387 -149.30258894 348.1343255 C-159.53912806 327.76226575 -158.45390816 304.76463318 -158.44785261 282.60454035 C-158.45085171 280.38994526 -158.45425594 278.17535068 -158.45803022 275.96075678 C-158.46679386 269.99606769 -158.46920497 264.03139298 -158.46984601 258.06669807 C-158.47056038 254.33118878 -158.47270189 250.59568306 -158.47534323 246.86017466 C-158.4840941 234.47497764 -158.48876611 222.08978821 -158.48801275 209.70458822 C-158.4879728 209.04009293 -158.48793284 208.37559764 -158.48789167 207.69096613 C-158.48785079 207.02564476 -158.48780991 206.36032339 -158.48776779 205.67484076 C-158.487361 194.8837076 -158.49694557 184.09260927 -158.51103004 173.30148618 C-158.52543476 162.17590197 -158.53211544 151.05033212 -158.53143626 139.92473805 C-158.53118226 133.69652322 -158.53397989 127.46834797 -158.54461432 121.24014139 C-158.55434221 115.38442982 -158.55434248 109.52879532 -158.54709768 103.67308092 C-158.54605796 101.53466475 -158.54837798 99.39624365 -158.55445814 97.25783587 C-158.62372211 71.19373757 -155.56268179 48.94042753 -138.30258894 28.1343255 C-137.78180769 27.39311457 -137.26102644 26.65190363 -136.72446394 25.88823175 C-136.25524519 25.30944269 -135.78602644 24.73065363 -135.30258894 24.1343255 C-134.64258894 24.1343255 -133.98258894 24.1343255 -133.30258894 24.1343255 C-133.30258894 23.4743255 -133.30258894 22.8143255 -133.30258894 22.1343255 C-129.84105048 19.1343255 -129.84105048 19.1343255 -127.30258894 19.1343255 C-127.30258894 18.4743255 -127.30258894 17.8143255 -127.30258894 17.1343255 C-120.73018301 12.0592851 -113.46867573 8.52161193 -105.67758894 5.7593255 C-104.67707502 5.40209406 -104.67707502 5.40209406 -103.65634871 5.03764582 C-91.24964634 0.87655943 -78.82438277 0.72277919 -65.87827253 0.51762629 C-63.87177864 0.47995152 -61.86529055 0.44196708 -59.85880804 0.40369081 C-39.90674974 0.04282548 -19.95477363 -0.01374079 0 0 Z M-38.30258894 87.1343255 C-40.64233136 90.87987375 -40.64233136 90.87987375 -41.30258894 95.1343255 C-42.14821394 95.23229425 -42.99383894 95.330263 -43.86508894 95.4312005 C-50.71932281 96.33471315 -56.44919956 97.37642159 -62.30258894 101.1343255 C-63.18946394 101.6912005 -64.07633894 102.2480755 -64.99008894 102.8218255 C-71.90513956 109.73687613 -74.52406949 118.52550906 -74.55483198 128.07829523 C-74.54764647 129.09709772 -74.54046095 130.11590021 -74.53305769 131.1655755 C-74.53259947 132.23368464 -74.53214125 133.30179377 -74.53166914 134.40226984 C-74.52865321 136.66159918 -74.52078669 138.92092655 -74.50839949 141.18022394 C-74.49029906 144.59468922 -74.48788903 148.00888003 -74.48813581 151.423388 C-74.44467396 179.27479059 -72.98214046 203.49264862 -52.30258894 224.1343255 C-51.76376081 224.74405207 -51.22493269 225.35377863 -50.66977644 225.98198175 C-39.30672076 238.51560347 -22.76659761 245.14677851 -6.30258894 247.1343255 C-6.25102644 247.87553644 -6.19946394 248.61674738 -6.14633894 249.38041925 C-4.74258533 262.41299537 0.92901278 275.32207028 9.69741106 285.1343255 C10.35741106 285.1343255 11.01741106 285.1343255 11.69741106 285.1343255 C11.69741106 285.7943255 11.69741106 286.4543255 11.69741106 287.1343255 C12.35741106 287.1343255 13.01741106 287.1343255 13.69741106 287.1343255 C13.69741106 287.7943255 13.69741106 288.4543255 13.69741106 289.1343255 C14.35741106 289.1343255 15.01741106 289.1343255 15.69741106 289.1343255 C15.69741106 289.7943255 15.69741106 290.4543255 15.69741106 291.1343255 C16.35741106 291.1343255 17.01741106 291.1343255 17.69741106 291.1343255 C17.69741106 291.7943255 17.69741106 292.4543255 17.69741106 293.1343255 C18.35741106 293.1343255 19.01741106 293.1343255 19.69741106 293.1343255 C19.69741106 293.7943255 19.69741106 294.4543255 19.69741106 295.1343255 C22.14583116 296.85873426 24.58265083 298.45215301 27.13491106 300.0093255 C27.87193254 300.46186701 28.60895403 300.91440851 29.3683095 301.38066339 C47.44385598 312.34030776 66.94672495 315.71499722 87.57875872 310.72514582 C98.55015294 307.66559592 107.8226473 302.19195299 116.69741106 295.1343255 C117.68741106 294.4743255 118.67741106 293.8143255 119.69741106 293.1343255 C119.69741106 292.4743255 119.69741106 291.8143255 119.69741106 291.1343255 C120.35741106 291.1343255 121.01741106 291.1343255 121.69741106 291.1343255 C135.72542105 278.6218069 142.76953899 260.30242424 144.69741106 242.1343255 C144.87272356 240.90971613 145.04803606 239.68510675 145.22866106 238.423388 C145.64453461 235.155642 145.7825487 231.93933221 145.83803606 228.64604425 C145.857372 227.69278254 145.87670794 226.73952082 145.89662981 225.75737238 C145.93081818 223.78102151 145.94873852 221.80432976 145.95131731 219.82768488 C146.01998962 217.17295802 146.12402046 214.72781979 146.69741106 212.1343255 C149.09975481 210.0405755 149.09975481 210.0405755 151.69741106 209.1343255 C152.84209856 208.546513 152.84209856 208.546513 154.00991106 207.9468255 C154.56678606 207.6787005 155.12366106 207.4105755 155.69741106 207.1343255 C155.69741106 206.4743255 155.69741106 205.8143255 155.69741106 205.1343255 C156.29295794 204.89971613 156.88850481 204.66510675 157.50209856 204.423388 C162.57604366 201.44402522 165.53566453 194.54161301 167.07241106 189.0093255 C168.72068534 178.79002497 166.94541582 170.7026625 161.21303606 162.05229425 C156.36943642 155.92289368 150.1820834 150.86269456 142.33022356 149.5874505 C138.78475266 149.38214484 135.24796235 149.2160413 131.69741106 149.1343255 C130.93815325 149.10854425 130.17889544 149.082763 129.39662981 149.0562005 C122.06391011 149.35983279 115.40795488 154.29793501 110.50991106 159.423388 C103.85278488 167.71705771 101.93702954 176.09600653 102.94350481 186.735888 C103.9217791 191.77443344 105.76440075 195.93876109 108.69741106 200.1343255 C109.10733294 200.7324505 109.51725481 201.3305755 109.93959856 201.9468255 C112.81118437 205.71071199 115.62826085 207.79947883 119.90834856 209.845263 C121.25485491 210.4956756 121.25485491 210.4956756 122.6285634 211.15922785 C123.31128313 211.48101007 123.99400286 211.8027923 124.69741106 212.1343255 C124.75636242 216.38426542 124.79132266 220.63409766 124.82241106 224.8843255 C124.83916887 226.07155207 124.85592669 227.25877863 124.87319231 228.48198175 C124.97626456 247.34420406 120.41973105 262.86806024 107.38491106 276.8843255 C94.98002377 288.62614533 80.08534882 291.27163769 63.65053606 291.1030755 C51.90758579 290.42429225 42.14515884 285.94028599 32.69741106 279.1343255 C31.86209856 278.53877863 31.02678606 277.94323175 30.16616106 277.329638 C27.23123863 274.71978609 25.19622994 271.81298507 23.13491106 268.5093255 C22.74577532 267.89267023 22.35663958 267.27601496 21.95571184 266.64067316 C14.17136304 254.02262691 14.17136304 254.02262691 15.11147356 248.860888 C15.30483294 248.29112238 15.49819231 247.72135675 15.69741106 247.1343255 C16.71834856 246.9487005 16.71834856 246.9487005 17.75991106 246.7593255 C32.00893542 243.72761819 44.01740143 236.96642897 54.69741106 227.1343255 C55.31616106 226.60709894 55.93491106 226.07987238 56.57241106 225.53666925 C66.24009989 216.78651571 72.86669448 204.4161405 76.69741106 192.1343255 C77.04545794 191.04571222 77.04545794 191.04571222 77.40053606 189.93510675 C80.48246736 179.08230581 79.86472471 167.3744824 79.82241106 156.1968255 C79.82019548 155.42485834 79.81797991 154.65289118 79.81569719 153.85753107 C79.79804179 148.61618398 79.75682564 143.37535828 79.69741106 138.1343255 C79.67855852 136.43783869 79.67855852 136.43783869 79.65932512 134.70707941 C79.6155769 131.9728158 79.54178927 129.24224878 79.44741106 126.5093255 C79.43339251 125.76690607 79.41937395 125.02448664 79.40493059 124.25956964 C79.14040453 118.59463223 77.23712633 114.15792507 74.69741106 109.1343255 C74.13811907 108.01356623 74.13811907 108.01356623 73.56752825 106.87016535 C73.13682024 106.01092463 73.13682024 106.01092463 72.69741106 105.1343255 C72.03741106 105.1343255 71.37741106 105.1343255 70.69741106 105.1343255 C70.69741106 104.4743255 70.69741106 103.8143255 70.69741106 103.1343255 C65.39861187 98.75121742 60.04727072 96.83558443 53.32241106 95.7593255 C47.1523743 94.65753322 47.1523743 94.65753322 45.05678606 92.24760675 C44.07241106 90.0718255 44.07241106 90.0718255 43.47084856 87.97416925 C42.83038759 85.97539912 42.83038759 85.97539912 40.83803606 84.8999505 C37.73930094 83.79164378 34.95663201 83.95325767 31.69741106 84.1343255 C31.03741106 84.4643255 30.37741106 84.7943255 29.69741106 85.1343255 C29.69741106 85.7943255 29.69741106 86.4543255 29.69741106 87.1343255 C29.03741106 87.1343255 28.37741106 87.1343255 27.69741106 87.1343255 C25.846788 91.0818313 25.4405744 94.22787593 25.43178606 98.5718255 C25.42920794 99.79643488 25.42662981 101.02104425 25.42397356 102.282763 C25.43557512 104.18928644 25.43557512 104.18928644 25.44741106 106.1343255 C25.43967669 107.40534113 25.43194231 108.67635675 25.42397356 109.985888 C25.42784075 111.82280207 25.42784075 111.82280207 25.43178606 113.6968255 C25.43516985 115.3693841 25.43516985 115.3693841 25.438622 117.07573175 C25.69857096 120.14803425 26.39563408 122.35754601 27.69741106 125.1343255 C28.35741106 125.1343255 29.01741106 125.1343255 29.69741106 125.1343255 C29.69741106 125.7943255 29.69741106 126.4543255 29.69741106 127.1343255 C32.76170882 128.66647438 35.31397526 128.36371098 38.69741106 128.1343255 C41.55442813 127.28686917 41.55442813 127.28686917 43.69741106 125.1343255 C44.49469713 123.16742619 44.49469713 123.16742619 45.13491106 121.0093255 C45.82241106 118.88041925 45.82241106 118.88041925 46.69741106 117.1343255 C50.45109593 115.7766097 52.94668132 116.10550763 56.69741106 117.1343255 C58.56956878 123.48820243 59.00447297 129.24818171 58.99819231 135.8530755 C59.00247744 136.8692193 59.00676256 137.8853631 59.01117754 138.93229914 C59.01689843 141.07710768 59.01743771 143.22193562 59.01308489 145.36674738 C59.0099474 148.59691572 59.03333482 151.8261466 59.05873919 155.0562005 C59.10635936 169.80814817 59.07187884 184.70882413 51.69741106 197.9468255 C51.35452044 198.61262629 51.01162981 199.27842707 50.65834856 199.96440363 C48.98570065 203.13413527 47.30216121 205.6842324 44.69741106 208.1343255 C44.69741106 208.7943255 44.69741106 209.4543255 44.69741106 210.1343255 C44.03741106 210.1343255 43.37741106 210.1343255 42.69741106 210.1343255 C41.00807184 211.77800691 39.34481182 213.4486131 37.69741106 215.1343255 C28.73365925 223.57079779 15.24809376 227.06744866 3.20131731 227.16166925 C-0.00033822 226.9542593 -3.12849945 226.59669287 -6.30258894 226.1343255 C-7.55942488 225.99704035 -7.55942488 225.99704035 -8.84165144 225.85698175 C-22.26250783 223.91161332 -34.40221026 215.86621503 -42.51743269 205.23198175 C-51.76946904 191.29362531 -54.45251536 176.27951596 -54.47055769 159.7749505 C-54.47388609 158.70815058 -54.47721449 157.64135065 -54.48064375 156.54222345 C-54.48568294 154.29997928 -54.48805301 152.05772768 -54.48789167 149.81547785 C-54.4900909 146.38127208 -54.50831319 142.94738134 -54.52719831 139.51323175 C-54.53013029 137.3296391 -54.5321164 135.14604492 -54.53305769 132.9624505 C-54.54024321 131.9363769 -54.54742872 130.91030329 -54.55483198 129.85313654 C-54.55175535 128.89824335 -54.54867872 127.94335016 -54.54550886 126.95952082 C-54.54693388 126.12205317 -54.5483589 125.28458551 -54.5498271 124.42174006 C-54.27435352 121.87309518 -53.70599229 120.27497425 -52.30258894 118.1343255 C-49.70102644 117.3062005 -49.70102644 117.3062005 -46.67758894 116.8843255 C-45.67469831 116.73479425 -44.67180769 116.585263 -43.63852644 116.4312005 C-42.48223738 116.28424738 -42.48223738 116.28424738 -41.30258894 116.1343255 C-41.14403425 116.74920832 -40.98547956 117.36409113 -40.82212019 117.99760675 C-39.35208545 123.10409887 -39.35208545 123.10409887 -36.17758894 127.2593255 C-32.12734429 128.49200866 -28.36740133 128.3370228 -24.30258894 127.1343255 C-21.40927608 125.1734547 -20.51039712 122.63407614 -19.66879988 119.30180597 C-18.90641833 114.78952373 -18.9334605 110.26196297 -18.92758894 105.6968255 C-18.89085066 104.19925714 -18.89085066 104.19925714 -18.85337019 102.67143488 C-18.82866522 96.40872448 -19.45628641 91.25974724 -23.30258894 86.1343255 C-28.60790589 82.59744754 -33.14409268 83.695328 -38.30258894 87.1343255 Z " fill="#1F2B84" transform="translate(212.30258893966675,45.86567449569702)"/>
<path d="M0 0 C0.33 0 0.66 0 1 0 C1.02770475 1.79157359 1.046704 3.58328184 1.0625 5.375 C1.07410156 6.37273437 1.08570313 7.37046875 1.09765625 8.3984375 C1.02197186 11.18967788 0.81673296 13.83144791 0.50225353 16.59724045 C-0.0251977 21.7611119 -0.14286988 26.85834339 -0.13371277 32.04571533 C-0.13597833 33.00557744 -0.13824388 33.96543954 -0.14057809 34.95438838 C-0.1468649 38.14310739 -0.14609219 41.33178332 -0.14526367 44.52050781 C-0.14825832 46.81763768 -0.15166156 49.11476704 -0.15544128 51.41189575 C-0.16425029 57.63051908 -0.16661798 63.84912864 -0.16725707 70.06775761 C-0.16796886 73.95375015 -0.17010555 77.83973922 -0.17275429 81.7257309 C-0.18151836 94.58523992 -0.18617529 107.44473785 -0.18542381 120.30424944 C-0.18536388 121.34183932 -0.18536388 121.34183932 -0.18530273 122.40039062 C-0.18526185 123.0929656 -0.18522097 123.78554058 -0.18517885 124.49910268 C-0.18477182 135.73971741 -0.19435934 146.98029873 -0.2084411 158.22090378 C-0.22280321 169.77675983 -0.22952831 181.33259525 -0.22884732 192.88846087 C-0.22859221 199.37079794 -0.23145156 205.8530971 -0.24202538 212.33542633 C-0.25168983 218.42575811 -0.25179689 224.51601558 -0.24450874 230.60634995 C-0.24346113 232.84206882 -0.24583621 235.07779229 -0.2518692 237.31350327 C-0.25956646 240.3631632 -0.25495939 243.41256502 -0.24723816 246.46221924 C-0.25238172 247.34840289 -0.25752529 248.23458655 -0.26282471 249.14762425 C-0.2364449 253.85647106 0.26000358 257.55602538 2 262 C2.24408092 263.76392501 2.43581964 265.53627957 2.5625 267.3125 C2.56002019 270.46173433 2.56002019 270.46173433 4 273 C4.12375 274.051875 4.2475 275.10375 4.375 276.1875 C5.00456643 280.02785524 6.21408611 282.58346907 8 286 C8 286.99 8 287.98 8 289 C8.66 289 9.32 289 10 289 C10 290.98 10 292.96 10 295 C4.11672817 288.69649447 2.0103862 280.59000736 -0.1875 272.4375 C-0.51105469 271.23996094 -0.83460937 270.04242188 -1.16796875 268.80859375 C-4.098989 254.46905859 -3.14924034 239.02270826 -3.14526367 224.47021484 C-3.14826277 222.25561975 -3.151667 220.04102518 -3.15544128 217.82643127 C-3.16420492 211.86174219 -3.16661603 205.89706748 -3.16725707 199.93237257 C-3.16797144 196.19686327 -3.17011295 192.46135755 -3.17275429 188.72584915 C-3.18150516 176.34065214 -3.18617717 163.95546271 -3.18542381 151.57026272 C-3.18538386 150.90576743 -3.1853439 150.24127214 -3.18530273 149.55664062 C-3.18526185 148.89131925 -3.18522097 148.22599788 -3.18517885 147.54051526 C-3.18477206 136.7493821 -3.19435663 125.95828376 -3.2084411 115.16716067 C-3.22284582 104.04157647 -3.2295265 92.91600661 -3.22884732 81.79041255 C-3.22859332 75.56219772 -3.23139095 69.33402247 -3.24202538 63.10581589 C-3.25175327 57.25010431 -3.25175354 51.39446981 -3.24450874 45.53875542 C-3.24346902 43.40033924 -3.24578904 41.26191814 -3.2518692 39.12351036 C-3.28730813 25.78780756 -2.71147685 13.09564573 0 0 Z " fill="#4F5298" transform="translate(57,104)"/>
<path d="M0 0 C7.51511635 0.00437194 15.0302161 0.00122019 22.54533142 -0.00362718 C29.88133691 -0.00816642 37.21733524 -0.00880713 44.55334169 -0.00618851 C48.89792518 -0.00463983 53.24249738 -0.00439451 57.58708012 -0.007725 C61.63824165 -0.01061819 65.68937197 -0.00860154 69.74053013 -0.00283074 C71.21914759 -0.00151418 72.6977677 -0.00187841 74.17638409 -0.00409341 C81.22029427 -0.01367255 88.09534455 0.00851004 95.05922329 1.12857032 C95.05922329 1.45857032 95.05922329 1.78857032 95.05922329 2.12857032 C90.63490679 3.22908559 86.32022877 3.26048187 81.79166043 3.23536658 C80.96266057 3.23480988 80.13366071 3.23425317 79.27953964 3.23367959 C76.50367845 3.2306453 73.72788934 3.22046302 70.95204556 3.21035743 C68.96106936 3.20680094 66.97009227 3.20371505 64.97911465 3.20106483 C60.69246315 3.1945149 56.4058325 3.18495611 52.11919224 3.17316985 C45.34155238 3.15488202 38.56391759 3.14527944 31.78625882 3.13725257 C12.51353625 3.11309686 -6.75915542 3.07720785 -26.03184116 3.03262305 C-36.67652592 3.00807481 -47.32119859 2.99071305 -57.96590751 2.98106366 C-64.70393915 2.97451951 -71.44187117 2.95895795 -78.17986846 2.93674624 C-82.37128356 2.92501771 -86.5626744 2.92164892 -90.7541045 2.92064834 C-92.69795226 2.91850052 -94.64179973 2.91290767 -96.58562648 2.90361762 C-99.239246 2.89142603 -101.89259106 2.89158492 -104.5462302 2.89479041 C-105.31520505 2.88828261 -106.08417991 2.88177481 -106.87645704 2.8750698 C-111.30402428 2.89588082 -114.80796715 3.58301879 -118.94077671 5.12857032 C-122.49652155 5.48054506 -126.03178279 5.62980837 -129.60093296 5.78482032 C-132.80089311 6.11417294 -135.09054035 6.6642287 -137.94077671 8.12857032 C-138.27077671 8.78857032 -138.60077671 9.44857032 -138.94077671 10.12857032 C-140.59077671 9.79857032 -142.24077671 9.46857032 -143.94077671 9.12857032 C-142.94077671 7.12857032 -142.94077671 7.12857032 -140.60483921 6.12857032 C-139.60194858 5.79857032 -138.59905796 5.46857032 -137.56577671 5.12857032 C-136.58866733 4.79857032 -135.61155796 4.46857032 -134.60483921 4.12857032 C-123.764328 1.16996598 -113.12542096 0.70163502 -101.96030796 0.51138282 C-101.03043378 0.49294444 -100.10055961 0.47450606 -99.14250743 0.45550895 C-66.10237868 -0.19064328 -33.04477833 -0.02147009 0 0 Z " fill="#2C329C" transform="translate(245.94077670574188,45.871429681777954)"/>
<path d="M0 0 C2.91551703 2.34861094 3.96639877 4.29948612 5.25 7.8125 C5.78121805 12.85907149 5.3002711 15.74547187 2.25 19.8125 C0.18532144 22.22129165 -0.63994659 22.77581553 -3.75 23.8125 C-8.97596788 24.20691267 -12.34166842 23.71799127 -16.75 20.8125 C-20.156807 17.0650123 -20.32050252 13.12772325 -20.16796875 8.25390625 C-19.46636065 4.15572811 -17.84624514 2.5647179 -14.75 -0.1875 C-9.80379565 -3.18125526 -5.1428877 -2.22079241 0 0 Z " fill="#212C81" transform="translate(354.75,216.1875)"/>
<path d="M0 0 C1.54125475 -0.05482724 3.08309906 -0.09316134 4.625 -0.125 C5.48351562 -0.14820313 6.34203125 -0.17140625 7.2265625 -0.1953125 C10 0 10 0 12.51844978 0.99717522 C17.2244854 2.35270044 21.60534271 2.26940273 26.47824097 2.24050903 C27.53284047 2.24221788 28.58743998 2.24392673 29.67399704 2.24568737 C33.20705027 2.24898108 36.73991349 2.23798033 40.27294922 2.22705078 C42.80582169 2.22648664 45.33869449 2.22680328 47.87156677 2.22793579 C53.32431326 2.2283912 58.7769986 2.22271909 64.22973251 2.21146011 C72.11341535 2.19519226 79.99707505 2.18999579 87.88077284 2.18748413 C100.67215597 2.18310905 113.46351355 2.169805 126.25488281 2.15087891 C138.67903516 2.13251528 151.10318057 2.11836114 163.52734375 2.10986328 C164.29342527 2.10933783 165.0595068 2.10881239 165.84880291 2.10827102 C169.69208537 2.1056609 173.53536788 2.1031335 177.37865043 2.10064721 C209.25245235 2.07992052 241.1262222 2.04455118 273 2 C273.33 1.34 273.66 0.68 274 0 C279.28 0 284.56 0 290 0 C282.84103316 4.77264456 273.1248808 4.29279838 264.78018188 4.26069641 C263.168881 4.26643473 263.168881 4.26643473 261.52502859 4.27228898 C257.95494856 4.2825403 254.38503174 4.27864184 250.81494141 4.2746582 C248.24331006 4.27900901 245.67168001 4.28419339 243.10005188 4.29014587 C236.85739552 4.30284852 230.61478226 4.30469214 224.37211515 4.30234561 C219.29429969 4.30055737 214.21649723 4.30232289 209.13868332 4.30657005 C208.4140071 4.30716524 207.68933088 4.30776043 206.94269478 4.30837366 C205.47017516 4.3095855 203.99765554 4.31079963 202.52513592 4.31201603 C188.73818584 4.32287441 174.95126027 4.32073711 161.16430883 4.31463119 C148.5737328 4.30946309 135.98323417 4.32071766 123.39267345 4.33972941 C110.43892297 4.35913839 97.48520905 4.36735848 84.53144395 4.36360615 C77.26920356 4.36169881 70.00702903 4.36413606 62.74480057 4.37832069 C55.91406538 4.39152848 49.08348717 4.38893306 42.2527523 4.37590981 C39.75228892 4.37354953 37.25181457 4.37625891 34.75136375 4.38453293 C10.48331311 4.45901848 10.48331311 4.45901848 0 1 C0 0.67 0 0.34 0 0 Z " fill="#343B73" transform="translate(113,433)"/>
<path d="M0 0 C1.8871875 0.0309375 1.8871875 0.0309375 3.8125 0.0625 C4.17601562 1.00222656 4.17601562 1.00222656 4.546875 1.9609375 C4.88203125 2.77820313 5.2171875 3.59546875 5.5625 4.4375 C5.88734375 5.24960938 6.2121875 6.06171875 6.546875 6.8984375 C8.05402537 9.47547856 8.99005122 10.15418466 11.8125 11.0625 C14.11671955 11.12868096 14.11671955 11.12868096 16.4375 10.75 C17.21351563 10.65074219 17.98953125 10.55148438 18.7890625 10.44921875 C20.87145686 10.14608801 20.87145686 10.14608801 22.8125 9.0625 C22.1525 11.0425 21.4925 13.0225 20.8125 15.0625 C8.8578144 14.45534434 8.8578144 14.45534434 4.8125 11.0625 C2.52236347 7.6272952 2.63407027 6.077169 2.8125 2.0625 C0.1725 2.7225 -2.4675 3.3825 -5.1875 4.0625 C-6.48526669 10.01328223 -6.33142541 15.93105642 -6.3203125 21.98828125 C-6.32126923 23.13161423 -6.32222595 24.2749472 -6.32321167 25.45292664 C-6.32389049 27.8609523 -6.322057 30.26897983 -6.31787109 32.67700195 C-6.31249403 36.37911021 -6.31783877 40.0810985 -6.32421875 43.78320312 C-6.3235584 46.1223961 -6.32227813 48.46158901 -6.3203125 50.80078125 C-6.32233673 51.91423416 -6.32436096 53.02768707 -6.32644653 54.17488098 C-6.32171829 55.70733711 -6.32171829 55.70733711 -6.31689453 57.27075195 C-6.31609894 58.17420853 -6.31530334 59.0776651 -6.31448364 60.00849915 C-6.41548452 62.05522464 -6.41548452 62.05522464 -5.1875 63.0625 C-5.36385452 65.75332872 -5.80585921 68.39101446 -6.1875 71.0625 C-6.5175 71.0625 -6.8475 71.0625 -7.1875 71.0625 C-10.29624119 58.42335446 -10.65374168 46.16434946 -10.57861328 33.19506836 C-10.56234243 29.84253409 -10.57863981 26.49117262 -10.59765625 23.13867188 C-10.59567685 20.99478902 -10.59183947 18.85090689 -10.5859375 16.70703125 C-10.59201019 15.71121536 -10.59808289 14.71539948 -10.6043396 13.68940735 C-10.51445206 4.85893825 -10.51445206 4.85893825 -7.1875 1.0625 C-4.43671116 0.14557039 -2.82801087 -0.04636083 0 0 Z " fill="#4C518E" transform="translate(167.1875,161.9375)"/>
<path d="M0 0 C10.03176634 -0.02321876 20.06352624 -0.04096359 30.09531403 -0.05181217 C34.75398206 -0.05702018 39.41263164 -0.06407987 44.07128906 -0.07543945 C48.57112305 -0.08634251 53.07093934 -0.09229251 57.57078552 -0.09487724 C59.2834857 -0.09671815 60.99618496 -0.10031291 62.70887756 -0.10573006 C65.11648618 -0.11303905 67.52402261 -0.11398681 69.93164062 -0.11352539 C70.63223602 -0.11712067 71.33283142 -0.12071594 72.05465698 -0.12442017 C76.79223255 -0.11466059 81.31921332 0.3399996 86 1 C86 1.33 86 1.66 86 2 C81.73044509 3.03900129 77.58096922 3.15432709 73.2121582 3.16113281 C72.44410858 3.16609772 71.67605896 3.17106262 70.88473511 3.17617798 C68.35674126 3.19072581 65.82880998 3.1975862 63.30078125 3.203125 C61.54151915 3.20887879 59.78225707 3.21463649 58.022995 3.22039795 C54.34206857 3.23088426 50.66116386 3.23674366 46.98022461 3.24023438 C42.25541301 3.2457402 37.53088652 3.26982227 32.80616474 3.29820633 C29.17658125 3.31678474 25.54706745 3.32203554 21.91744041 3.32357025 C20.17464817 3.32660388 18.43185736 3.33465621 16.68911171 3.34775543 C14.25906838 3.36472979 11.82973605 3.3629582 9.3996582 3.35644531 C8.31416435 3.37026749 8.31416435 3.37026749 7.20674133 3.3843689 C5.20600891 3.36749268 5.20600891 3.36749268 2 3 C1.34 2.01 0.68 1.02 0 0 Z " fill="#4A4E88" transform="translate(255,46)"/>
<path d="M0 0 C0.33 0 0.66 0 1 0 C1.02334539 28.20693093 1.04098726 56.41386042 1.05181217 84.62079906 C1.05697163 97.71733612 1.0640077 110.81386718 1.07543945 123.91040039 C1.08539694 135.32340239 1.09185598 146.73640004 1.09408849 158.14940625 C1.09539378 164.19422112 1.09846821 170.23902357 1.10573006 176.28383446 C1.11250704 181.9710104 1.11461352 187.65816876 1.11310768 193.34534836 C1.11338325 195.43473595 1.11537843 197.52412412 1.11920547 199.61350822 C1.12416887 202.46254995 1.12298844 205.31152502 1.12025452 208.16056824 C1.12316736 208.99033981 1.1260802 209.82011138 1.12908131 210.67502755 C1.11891295 214.58626306 0.96588628 218.18038866 0 222 C-0.66 221.67 -1.32 221.34 -2 221 C-1.89529184 220.1661089 -1.89529184 220.1661089 -1.78846836 219.31537151 C-0.70795061 209.38777891 -0.82406921 199.44666326 -0.79467773 189.47387695 C-0.78508554 187.4033133 -0.7750747 185.33275155 -0.76467896 183.26219177 C-0.73776907 177.6679925 -0.71668463 172.07378492 -0.69667697 166.47955728 C-0.67473104 160.62325308 -0.64738466 154.76697411 -0.62062073 148.91069031 C-0.57080978 137.83295591 -0.52582816 126.75520742 -0.48259836 115.67744559 C-0.43312656 103.06072703 -0.37824546 90.4440338 -0.32291877 77.82733977 C-0.20927688 51.88491683 -0.10239945 25.94246958 0 0 Z " fill="#303777" transform="translate(459,151)"/>
<path d="M0 0 C1.32 0.33 2.64 0.66 4 1 C4 2.65 4 4.3 4 6 C4.66 6 5.32 6 6 6 C9.56592646 13.43621112 9.3889231 20.44403231 9.29296875 28.5625 C9.28736387 29.96353702 9.28309799 31.36457997 9.28010559 32.765625 C9.26872681 36.42849354 9.23932118 40.09099734 9.20599365 43.75372314 C9.17514116 47.50112985 9.16156804 51.24859627 9.14648438 54.99609375 C9.11444348 62.33089428 9.06333334 69.66539577 9 77 C7.515 77.495 7.515 77.495 6 78 C6.00523682 76.74155273 6.01047363 75.48310547 6.01586914 74.18652344 C6.03428222 69.41520937 6.04556137 64.64389826 6.05493164 59.87255859 C6.05989044 57.82665475 6.06665952 55.7807543 6.07543945 53.73486328 C6.11951887 43.18173195 6.10121572 32.6262998 5.74609375 22.078125 C5.73224136 21.2913739 5.71838898 20.5046228 5.70411682 19.69403076 C5.48452893 14.54047272 4.25001316 10.65495524 1.94642639 6.04022217 C1.0167578 4.03612499 0.46351156 2.15464515 0 0 Z " fill="#4F5697" transform="translate(285,151)"/>
<path d="M0 0 C0.33 0 0.66 0 1 0 C1.73930501 3.31465918 2.12920135 6.38954519 2.14526367 9.78344727 C2.15483345 11.16627647 2.15483345 11.16627647 2.16459656 12.57704163 C2.16570938 13.56353195 2.1668222 14.55002228 2.16796875 15.56640625 C2.17129715 16.59628159 2.17462555 17.62615692 2.17805481 18.6872406 C2.18311219 20.8667659 2.1854635 23.04629892 2.18530273 25.22583008 C2.18747619 28.52633816 2.20560866 31.8265047 2.22460938 35.12695312 C2.22754631 37.25260304 2.2295291 39.37825452 2.23046875 41.50390625 C2.23765427 42.47622696 2.24483978 43.44854767 2.25224304 44.45033264 C2.22938338 51.46398461 1.33059701 58.11816417 0 65 C-1.92051504 61.76458729 -2.22832854 59.43877552 -2.15112305 55.69995117 C-2.13417892 54.64172653 -2.1172348 53.58350189 -2.09977722 52.49320984 C-2.07071793 51.35463028 -2.04165863 50.21605072 -2.01171875 49.04296875 C-1.98906448 47.86664383 -1.96641022 46.69031891 -1.94306946 45.47834778 C-1.89311234 42.98928737 -1.83814778 40.50032319 -1.77856445 38.01147461 C-1.6881043 34.21287582 -1.61320596 30.41421984 -1.54101562 26.61523438 C-1.49050231 24.19529314 -1.43909909 21.77537029 -1.38671875 19.35546875 C-1.36373215 18.22296188 -1.34074554 17.09045502 -1.31706238 15.92362976 C-1.18374619 10.53211768 -0.92727059 5.31574875 0 0 Z " fill="#43498D" transform="translate(270,166)"/>
<path d="M0 0 C0.99 0.33 1.98 0.66 3 1 C2.58427734 1.79664063 2.58427734 1.79664063 2.16015625 2.609375 C1.79792969 3.31578125 1.43570313 4.0221875 1.0625 4.75 C0.70285156 5.44609375 0.34320313 6.1421875 -0.02734375 6.859375 C-1.69517615 10.5299459 -2.12555057 13.7745109 -2.12939453 17.79003906 C-2.13254669 18.73913147 -2.13569885 19.68822388 -2.13894653 20.66607666 C-2.1369223 21.68892761 -2.13489807 22.71177856 -2.1328125 23.765625 C-2.13424759 25.36491852 -2.13424759 25.36491852 -2.13571167 26.996521 C-2.1363925 29.25940001 -2.13454496 31.52228098 -2.13037109 33.78515625 C-2.1250847 37.19535917 -2.13028628 40.60542653 -2.13671875 44.015625 C-2.13810037 54.79663942 -2.02259043 65.47073639 -1.01904297 76.20996094 C-1.01275879 77.13067383 -1.00647461 78.05138672 -1 79 C-1.99 79.99 -1.99 79.99 -3 81 C-5.04377744 73.40636217 -5.29159731 66.30141054 -5.265625 58.4609375 C-5.26753845 57.18070709 -5.2694519 55.90047668 -5.27142334 54.58145142 C-5.2743533 51.88693347 -5.27014479 49.19254915 -5.26074219 46.49804688 C-5.24932572 43.06077173 -5.25593432 39.62380827 -5.26788712 36.18654442 C-5.27688598 32.88215101 -5.2705712 29.57783973 -5.265625 26.2734375 C-5.26967346 25.04724701 -5.27372192 23.82105652 -5.27789307 22.55770874 C-5.24559879 16.65832831 -5.04675262 11.55793947 -3 6 C-2.34 6 -1.68 6 -1 6 C-0.67 4.02 -0.34 2.04 0 0 Z " fill="#64699E" transform="translate(141,153)"/>
<path d="M0 0 C0.62003906 0.18175781 1.24007812 0.36351562 1.87890625 0.55078125 C20.80835851 5.92376988 38.34513879 8.5940143 57 1 C57.99 1 58.98 1 60 1 C59.67 1.99 59.34 2.98 59 4 C57.68 4 56.36 4 55 4 C55 4.99 55 5.98 55 7 C42.98396121 9.29658079 31.18545456 9.21517374 19 9 C18.67 8.01 18.34 7.02 18 6 C14.37 6 10.74 6 7 6 C7 5.34 7 4.68 7 4 C5.02 4 3.04 4 1 4 C0.67 2.68 0.34 1.36 0 0 Z " fill="#4D5390" transform="translate(250,352)"/>
<path d="M0 0 C0.97699356 0.00045822 1.95398712 0.00091644 2.96058655 0.00138855 C5.0101138 0.00438597 7.0596393 0.01219584 9.10913086 0.0246582 C12.21150984 0.0429032 15.31358854 0.04516738 18.41601562 0.04492188 C28.08006833 0.06267437 37.6743759 0.1065597 47.28515625 1.23046875 C47.28515625 1.56046875 47.28515625 1.89046875 47.28515625 2.23046875 C46.34674393 2.22380692 46.34674393 2.22380692 45.38937378 2.2170105 C38.86800423 2.1727048 32.34667757 2.1425722 25.82519531 2.12060547 C23.39256045 2.11055862 20.95993763 2.09691881 18.52734375 2.07958984 C15.02731348 2.05528408 11.52744313 2.04397231 8.02734375 2.03515625 C6.94274872 2.02483368 5.85815369 2.01451111 4.74069214 2.00387573 C-0.52391512 2.00309651 -4.76938442 2.22038824 -9.71484375 4.23046875 C-13.2705886 4.58244349 -16.80584984 4.7317068 -20.375 4.88671875 C-23.57496016 5.21607137 -25.86460739 5.76612714 -28.71484375 7.23046875 C-29.04484375 7.89046875 -29.37484375 8.55046875 -29.71484375 9.23046875 C-31.36484375 8.90046875 -33.01484375 8.57046875 -34.71484375 8.23046875 C-33.71484375 6.23046875 -33.71484375 6.23046875 -31.37890625 5.23046875 C-30.37601562 4.90046875 -29.373125 4.57046875 -28.33984375 4.23046875 C-27.36273438 3.90046875 -26.385625 3.57046875 -25.37890625 3.23046875 C-16.91463199 0.92038963 -8.7594654 -0.06903159 0 0 Z " fill="#2F377F" transform="translate(136.71484375,46.76953125)"/>
<path d="M0 0 C0.66 0 1.32 0 2 0 C1.99777939 0.72440781 1.99555878 1.44881561 1.99327087 2.19517517 C1.97326773 9.00843453 1.95802575 15.82168953 1.94818783 22.63497066 C1.94296011 26.13808885 1.9358645 29.64118285 1.92456055 33.14428711 C1.91165794 37.16780841 1.90677088 41.19130414 1.90234375 45.21484375 C1.89718246 46.47836166 1.89202118 47.74187958 1.88670349 49.04368591 C1.88659019 50.78537804 1.88659019 50.78537804 1.88647461 52.56225586 C1.884254 53.59039902 1.88203339 54.61854218 1.87974548 55.67784119 C1.73815391 57.9613511 1.73815391 57.9613511 3 59 C2.82364548 61.69082872 2.38164079 64.32851446 2 67 C1.67 67 1.34 67 1 67 C-2.45187212 53.16656734 -2.35142614 39.68012628 -2.1875 25.5 C-2.17241699 23.21224845 -2.15873503 20.92448722 -2.14648438 18.63671875 C-2.11378636 13.09093072 -2.06387749 7.54551208 -2 2 C-1.34 2.66 -0.68 3.32 0 4 C0 2.68 0 1.36 0 0 Z " fill="#696DA7" transform="translate(159,166)"/>
<path d="M0 0 C0.33 0 0.66 0 1 0 C1.05519204 1.81213857 1.09331732 3.62479799 1.125 5.4375 C1.14820313 6.44683594 1.17140625 7.45617187 1.1953125 8.49609375 C1.03837009 11.31164055 0.68909597 13.46015851 0.00772095 16.1502533 C-1.06216847 20.84711019 -1.30572167 25.29647636 -1.31884766 30.09985352 C-1.32889328 30.95948196 -1.3389389 31.81911041 -1.34928894 32.70478821 C-1.37988878 35.51282148 -1.39709087 38.32076046 -1.4140625 41.12890625 C-1.43279286 43.08903298 -1.45236764 45.04915181 -1.4727478 47.00926208 C-1.52387773 52.14327312 -1.56360544 57.27731024 -1.60089111 62.41143799 C-1.64105129 67.66042431 -1.6920886 72.90930392 -1.7421875 78.15820312 C-1.83871993 88.4387269 -1.92319672 98.71931121 -2 109 C-2.33 109 -2.66 109 -3 109 C-3.04658086 97.65491962 -3.08199898 86.30986243 -3.10362434 74.96470547 C-3.11400953 69.69526704 -3.12807121 64.4258946 -3.15087891 59.15649414 C-3.17279675 54.06010869 -3.18460809 48.96378625 -3.18975449 43.86735725 C-3.19341655 41.93435743 -3.20056634 40.00136059 -3.21146011 38.06838799 C-3.28161899 25.08948285 -2.64455028 12.7460709 0 0 Z " fill="#7576AE" transform="translate(57,104)"/>
<path d="M0 0 C0.33 0 0.66 0 1 0 C0.66338676 6.50785601 -0.50144093 9.07300673 -5 14 C-5.515625 15.093125 -6.03125 16.18625 -6.5625 17.3125 C-8 20 -8 20 -10.1875 20.875 C-10.785625 20.91625 -11.38375 20.9575 -12 21 C-12 21.66 -12 22.32 -12 23 C-12.66 23 -13.32 23 -14 23 C-14 23.66 -14 24.32 -14 25 C-14.99 25 -15.98 25 -17 25 C-17 25.99 -17 26.98 -17 28 C-18.390625 29.421875 -18.390625 29.421875 -20.25 30.75 C-20.85328125 31.19859375 -21.4565625 31.6471875 -22.078125 32.109375 C-24.47352178 33.21943692 -25.56754322 32.88257281 -28 32 C-26.96552734 31.19949219 -26.96552734 31.19949219 -25.91015625 30.3828125 C-15.65417935 22.25118747 -8.07860025 13.74219805 -1.53125 2.4921875 C-1.0259375 1.66976562 -0.520625 0.84734375 0 0 Z " fill="#555A93" transform="translate(284,249)"/>
<path d="M0 0 C5.13667833 9.4986126 5.54576835 20.24666057 5.8125 30.8125 C5.86341797 32.08287109 5.91433594 33.35324219 5.96679688 34.66210938 C6.15782039 40.84932852 6.24944523 46.18965691 4 52 C3.67 52 3.34 52 3 52 C1.80611597 21.87347956 1.80611597 21.87347956 2 8 C1.34 8 0.68 8 0 8 C0 5.36 0 2.72 0 0 Z " fill="#373D84" transform="translate(455,98)"/>
<path d="M0 0 C0.33 0 0.66 0 1 0 C1.13277344 0.92683594 1.26554687 1.85367187 1.40234375 2.80859375 C1.57894531 4.00613281 1.75554688 5.20367187 1.9375 6.4375 C2.11152344 7.63246094 2.28554688 8.82742188 2.46484375 10.05859375 C2.68985213 12.87955676 2.68985213 12.87955676 4 14 C4.32237212 16.57897694 4.51267304 19.15931821 4.71875 21.75 C4.76200665 23.96665352 4.76200665 23.96665352 6 25 C6.12375 26.051875 6.2475 27.10375 6.375 28.1875 C7.00456643 32.02785524 8.21408611 34.58346907 10 38 C10 38.99 10 39.98 10 41 C10.66 41 11.32 41 12 41 C12 42.98 12 44.96 12 47 C1.6084775 35.86622589 -0.6189162 17.54745646 -0.140625 2.9375 C-0.09421875 1.968125 -0.0478125 0.99875 0 0 Z " fill="#444B8D" transform="translate(55,352)"/>
<path d="M0 0 C-0.66 0 -1.32 0 -2 0 C-2 0.66 -2 1.32 -2 2 C-2.66 2 -3.32 2 -4 2 C-4.91079612 5.88151097 -5.12880647 9.48980893 -5.1328125 13.47265625 C-5.13474609 15.31633789 -5.13474609 15.31633789 -5.13671875 17.19726562 C-5.13285156 18.47279297 -5.12898437 19.74832031 -5.125 21.0625 C-5.12886719 22.34189453 -5.13273438 23.62128906 -5.13671875 24.93945312 C-5.13542969 26.16728516 -5.13414062 27.39511719 -5.1328125 28.66015625 C-5.13168457 29.78043213 -5.13055664 30.90070801 -5.12939453 32.05493164 C-5.01863805 34.57579091 -4.87351569 36.63984776 -4 39 C-3.34 39.33 -2.68 39.66 -2 40 C-2 40.66 -2 41.32 -2 42 C-1.34 42.33 -0.68 42.66 0 43 C-1.98 42.67 -3.96 42.34 -6 42 C-6 40.68 -6 39.36 -6 38 C-6.66 38 -7.32 38 -8 38 C-8.04957858 33.39186151 -8.08580385 28.78387963 -8.10986328 24.17553711 C-8.11989726 22.60910333 -8.13352754 21.04268817 -8.15087891 19.47631836 C-8.17524225 17.21984247 -8.18650916 14.96361506 -8.1953125 12.70703125 C-8.20563507 12.01100296 -8.21595764 11.31497467 -8.22659302 10.59785461 C-8.22749718 6.6456757 -7.9626847 3.47485702 -6 0 C-3 -1 -3 -1 0 0 Z " fill="#525590" transform="translate(244,131)"/>
<path d="M0 0 C1.34191406 0.68835938 1.34191406 0.68835938 2.7109375 1.390625 C12.82782066 6.54318366 22.46361154 10.87110059 33.62890625 13.2890625 C34.41136719 13.52367187 35.19382813 13.75828125 36 14 C37.4783226 16.95664519 37.06032783 19.74229737 37 23 C36.67 23 36.34 23 36 23 C35.505 19.04 35.505 19.04 35 15 C31.37 15 27.74 15 24 15 C24 14.34 24 13.68 24 13 C21.36 13 18.72 13 16 13 C16 12.34 16 11.68 16 11 C15.27039063 10.89429688 14.54078125 10.78859375 13.7890625 10.6796875 C10.7740394 9.94493397 8.9171807 8.88093924 6.375 7.125 C5.61960938 6.61195313 4.86421875 6.09890625 4.0859375 5.5703125 C2.21150067 4.15921961 0.6041522 2.7063275 -1 1 C-0.67 0.67 -0.34 0.34 0 0 Z " fill="#484F8D" transform="translate(170,279)"/>
<path d="M0 0 C5.28 0 10.56 0 16 0 C8.26270233 5.15819845 -2.36587324 4.27447405 -11.32421875 4.1953125 C-12.55163284 4.1924826 -13.77904694 4.18965271 -15.0436554 4.18673706 C-18.92504038 4.1756325 -22.80618595 4.15054606 -26.6875 4.125 C-29.3352831 4.11495763 -31.98306986 4.10583399 -34.63085938 4.09765625 C-41.08731987 4.07572508 -47.54364282 4.04234558 -54 4 C-54 3.67 -54 3.34 -54 3 C-36.51 2.67 -19.02 2.34 -1 2 C-0.67 1.34 -0.34 0.68 0 0 Z " fill="#343A72" transform="translate(387,433)"/>
<path d="M0 0 C2.93703384 0.62936439 5.33788628 1.62420173 8 3 C8.02907584 7.3958194 8.0468244 11.79161399 8.0625 16.1875 C8.07087891 17.43337891 8.07925781 18.67925781 8.08789062 19.96289062 C8.09111328 21.16494141 8.09433594 22.36699219 8.09765625 23.60546875 C8.10289307 24.71043701 8.10812988 25.81540527 8.11352539 26.95385742 C8.00901923 29.75799379 7.64097959 32.27417329 7 35 C5 33 5 33 4.82055664 30.34204102 C4.85012451 29.24045654 4.87969238 28.13887207 4.91015625 27.00390625 C4.93013672 25.80572266 4.95011719 24.60753906 4.97070312 23.37304688 C5.03180934 20.83648908 5.09690166 18.30002412 5.16601562 15.76367188 C5.19405273 13.96446289 5.19405273 13.96446289 5.22265625 12.12890625 C5.25109619 11.02619385 5.27953613 9.92348145 5.30883789 8.78735352 C4.95897678 5.6297533 4.36216368 4.9740967 2 3 C2 2.34 2 1.68 2 1 C1.34 0.67 0.68 0.34 0 0 Z " fill="#595C96" transform="translate(330,255)"/>
<path d="M0 0 C2.64 0 5.28 0 8 0 C2.16663379 5.83336621 -8.20846202 4.92752058 -16 5 C-19.69513377 4.82620871 -23.33587887 4.50459295 -27 4 C-27 3.67 -27 3.34 -27 3 C-17.74545543 1.13986729 -9.37490608 0.95990547 0 2 C0 1.34 0 0.68 0 0 Z " fill="#343A84" transform="translate(295,333)"/>
<path d="M0 0 C0.99 0.33 1.98 0.66 3 1 C2.73445312 1.51949219 2.46890625 2.03898438 2.1953125 2.57421875 C1.84210938 3.27160156 1.48890625 3.96898437 1.125 4.6875 C0.77695313 5.37199219 0.42890625 6.05648437 0.0703125 6.76171875 C-0.28289062 7.50035156 -0.63609375 8.23898438 -1 9 C-1.34353516 9.67160156 -1.68707031 10.34320313 -2.04101562 11.03515625 C-3.40364004 15.2479136 -3.35709917 19.27259496 -3.4140625 23.67578125 C-3.43342865 24.6009404 -3.4527948 25.52609955 -3.4727478 26.47929382 C-3.53235254 29.42360317 -3.57885248 32.36795202 -3.625 35.3125 C-3.66319736 37.31316775 -3.70225012 39.31381936 -3.7421875 41.31445312 C-3.83803841 46.2095038 -3.92214 51.10463145 -4 56 C-4.33 56 -4.66 56 -5 56 C-5.04960464 50.00432528 -5.08581647 44.00877125 -5.10986328 38.01293945 C-5.11989285 35.97515785 -5.13351978 33.93739054 -5.15087891 31.8996582 C-5.17526127 28.9630174 -5.18651377 26.02656765 -5.1953125 23.08984375 C-5.20563507 22.18540024 -5.21595764 21.28095673 -5.22659302 20.34910583 C-5.22750311 15.16574571 -4.68966789 10.90822211 -3 6 C-2.34 6 -1.68 6 -1 6 C-0.67 4.02 -0.34 2.04 0 0 Z " fill="#373C7F" transform="translate(141,153)"/>
<path d="M0 0 C1.86131271 3.16349591 2.24746869 5.47236155 2.1875 9.125 C2.17783203 10.42824219 2.17783203 10.42824219 2.16796875 11.7578125 C2 14 2 14 1 16 C0.84679619 17.39301984 0.72604374 18.78972825 0.625 20.1875 C0.16022978 24.68269951 -0.84445041 28.02052383 -3 32 C-4.485 32.495 -4.485 32.495 -6 33 C-5.80664062 32.36835938 -5.61328125 31.73671875 -5.4140625 31.0859375 C-3.19406798 23.4588276 -1.98066857 15.87363711 -1 8 C-0.8865625 7.11957031 -0.773125 6.23914063 -0.65625 5.33203125 C-0.42987829 3.55564215 -0.21335986 1.77799886 0 0 Z " fill="#464D8E" transform="translate(357,280)"/>
<path d="M0 0 C0.99 0 1.98 0 3 0 C7.18817912 6.28226868 8.4519448 11.02626489 8.1875 18.4375 C8.17396484 19.16904297 8.16042969 19.90058594 8.14648438 20.65429688 C8.11153874 22.43652422 8.05774805 24.21836573 8 26 C7.34 26.33 6.68 26.66 6 27 C5.34 27.99 4.68 28.98 4 30 C4.10699219 28.94941406 4.21398437 27.89882812 4.32421875 26.81640625 C5.0372422 18.8881521 5.47874522 12.38014173 2 5 C1.608125 3.989375 1.21625 2.97875 0.8125 1.9375 C0.544375 1.298125 0.27625 0.65875 0 0 Z " fill="#485195" transform="translate(374,209)"/>
<path d="M0 0 C1.875 1.5625 1.875 1.5625 3 3 C-0.69418201 4.231394 -3.2056261 3.64432764 -7 3 C-7.12375 4.11375 -7.2475 5.2275 -7.375 6.375 C-8 10 -8 10 -10 12 C-13.125 12.125 -13.125 12.125 -16 12 C-14.625 10.5 -14.625 10.5 -13 9 C-12.34 9 -11.68 9 -11 9 C-10.814375 8.1646875 -10.814375 8.1646875 -10.625 7.3125 C-9.93456646 4.7578959 -9.10518316 2.40539865 -8 0 C-5.06317146 -1.46841427 -3.13175678 -0.76696084 0 0 Z " fill="#7F80AC" transform="translate(267,162)"/>
<path d="M0 0 C8.25 0 16.5 0 25 0 C25 0.33 25 0.66 25 1 C30.94 1.33 36.88 1.66 43 2 C43 2.33 43 2.66 43 3 C37.35834639 3.07410727 31.71697553 3.12858167 26.07495117 3.16479492 C24.15530462 3.1798898 22.2356926 3.20036773 20.31616211 3.22631836 C17.55834436 3.26267109 14.8009822 3.27971912 12.04296875 3.29296875 C11.18350143 3.30845261 10.32403412 3.32393646 9.43852234 3.33988953 C8.63791885 3.34011612 7.83731537 3.34034271 7.01245117 3.34057617 C5.95655037 3.35056892 5.95655037 3.35056892 4.87931824 3.36076355 C3 3 3 3 0 0 Z " fill="#1F24AB" transform="translate(333,46)"/>
<path d="M0 0 C1.06645254 2.6974976 1.1154214 3.72836918 -0.0390625 6.4453125 C-0.56242187 7.32960938 -1.08578125 8.21390625 -1.625 9.125 C-4.62111375 14.32987668 -7.3496403 19.61285584 -10 25 C-10.66575452 26.33378902 -11.33211928 27.66727438 -12 29 C-13.81727783 23.73945891 -11.29904889 19.77344897 -9 15 C-6.19644259 9.87260501 -3.24173833 4.8626075 0 0 Z " fill="#5A619D" transform="translate(71,77)"/>
<path d="M0 0 C0.33 0 0.66 0 1 0 C1.02536581 7.17162317 1.04287357 14.34323476 1.05493164 21.51489258 C1.05995878 23.9543501 1.0667814 26.39380461 1.07543945 28.83325195 C1.08757583 32.34066511 1.09324455 35.84803841 1.09765625 39.35546875 C1.10281754 40.44522507 1.10797882 41.53498138 1.11329651 42.65776062 C1.11337204 43.67844131 1.11344757 44.69912201 1.11352539 45.75073242 C1.115746 46.64563889 1.11796661 47.54054535 1.12025452 48.46257019 C0.99694186 51.06452827 0.57578024 53.4628987 0 56 C-0.66 55.67 -1.32 55.34 -2 55 C-1.93148331 54.33006516 -1.86296661 53.66013031 -1.79237366 52.96989441 C-1.15361978 46.40612173 -0.80523754 39.8928189 -0.68359375 33.30078125 C-0.66281265 32.3397197 -0.64203156 31.37865814 -0.62062073 30.38847351 C-0.55601347 27.36321114 -0.49666006 24.33787328 -0.4375 21.3125 C-0.39422997 19.2428312 -0.35061321 17.17316962 -0.30664062 15.10351562 C-0.20042531 10.06908483 -0.09891681 5.03457927 0 0 Z " fill="#313978" transform="translate(459,317)"/>
<path d="M0 0 C-1 2 -1 2 -3.62109375 3.09375 C-8.29796208 4.34812393 -12.84116191 4.446956 -17.66015625 4.65625 C-20.86011641 4.98560262 -23.14976364 5.53565839 -26 7 C-26.33 7.66 -26.66 8.32 -27 9 C-28.65 8.67 -30.3 8.34 -32 8 C-31 6 -31 6 -28.6640625 5 C-19.12425217 1.86093645 -10.08316251 -0.3804967 0 0 Z " fill="#474E8E" transform="translate(134,47)"/>
<path d="M0 0 C7.84616118 -0.97837218 15.95344466 -0.80513988 23 3 C23.33 3.99 23.66 4.98 24 6 C23.154375 5.68289062 22.30875 5.36578125 21.4375 5.0390625 C17.86466749 3.95909267 14.71976589 3.5952493 11 3.375 C9.824375 3.30023438 8.64875 3.22546875 7.4375 3.1484375 C4.2858444 3.01234328 1.15401439 2.97115231 -2 3 C-1.34 2.01 -0.68 1.02 0 0 Z " fill="#4C538E" transform="translate(340,193)"/>
<path d="M0 0 C0.66 0 1.32 0 2 0 C2 0.66 2 1.32 2 2 C2.99 2 3.98 2 5 2 C5 3.32 5 4.64 5 6 C8.96 6.33 12.92 6.66 17 7 C17.33 8.32 17.66 9.64 18 11 C6.03795676 10.1173638 6.03795676 10.1173638 3 8 C1.69838114 5.41263568 0.79546187 2.78088295 0 0 Z " fill="#394086" transform="translate(255,132)"/>
<path d="M0 0 C0.62003906 0.18175781 1.24007812 0.36351562 1.87890625 0.55078125 C9.84870159 2.81295023 17.86662006 4.4523528 26 6 C25.67 6.66 25.34 7.32 25 8 C22.69 8 20.38 8 18 8 C18 7.34 18 6.68 18 6 C14.37 6 10.74 6 7 6 C7 5.34 7 4.68 7 4 C5.02 4 3.04 4 1 4 C0.67 2.68 0.34 1.36 0 0 Z " fill="#5B6299" transform="translate(250,352)"/>
<path d="M0 0 C0.75 1.75 0.75 1.75 1 4 C-1.99973936 7.85362556 -4.80577405 8.8058254 -9.5 9.8125 C-10.6240625 10.06644531 -11.748125 10.32039062 -12.90625 10.58203125 C-15.73732309 10.96451208 -17.35301493 10.95369315 -20 10 C-18 9 -18 9 -16 8 C-15.08734375 7.4740625 -15.08734375 7.4740625 -14.15625 6.9375 C-11.67395203 5.85824001 -9.94155007 5.79583676 -7.25 5.875 C-6.45078125 5.89304688 -5.6515625 5.91109375 -4.828125 5.9296875 C-4.22484375 5.95289063 -3.6215625 5.97609375 -3 6 C-2.87625 5.195625 -2.7525 4.39125 -2.625 3.5625 C-2.315625 2.2940625 -2.315625 2.2940625 -2 1 C-1.34 0.67 -0.68 0.34 0 0 Z " fill="#434A8B" transform="translate(172,134)"/>
<path d="M0 0 C1.69141656 0.08963062 3.37959602 0.24577676 5.0625 0.4375 C6.44115234 0.59025391 6.44115234 0.59025391 7.84765625 0.74609375 C8.55792969 0.82988281 9.26820313 0.91367187 10 1 C10 1.33 10 1.66 10 2 C-0.95802497 4.38904688 -11.00713053 3.78953689 -22 2 C-22 1.67 -22 1.34 -22 1 C-21.36908447 1.00523682 -20.73816895 1.01047363 -20.08813477 1.01586914 C-17.24626653 1.03657826 -14.40441412 1.04964066 -11.5625 1.0625 C-10.56927734 1.07087891 -9.57605469 1.07925781 -8.55273438 1.08789062 C-7.60849609 1.09111328 -6.66425781 1.09433594 -5.69140625 1.09765625 C-4.81685791 1.10289307 -3.94230957 1.10812988 -3.04125977 1.11352539 C-1.00559794 1.22784809 -1.00559794 1.22784809 0 0 Z " fill="#5E6295" transform="translate(221,270)"/>
<path d="M0 0 C11.22 0.33 22.44 0.66 34 1 C34 1.33 34 1.66 34 2 C16.18628641 3.05339806 16.18628641 3.05339806 7.4375 3.25 C5.91962891 3.28867187 5.91962891 3.28867187 4.37109375 3.328125 C3.58863281 3.21984375 2.80617188 3.1115625 2 3 C1.34 2.01 0.68 1.02 0 0 Z " fill="#3D4288" transform="translate(255,46)"/>
<path d="M0 0 C5.05663427 3.42066436 7.83507897 7.91002391 11 13 C9.12890625 13.58203125 9.12890625 13.58203125 7 14 C2.11162883 10.88921835 1.33181995 5.28692163 0 0 Z " fill="#3F4688" transform="translate(438,72)"/>
<path d="M0 0 C5.49418605 -0.36627907 5.49418605 -0.36627907 7.8125 1.3125 C9 3 9 3 10 6 C12.01508358 6.73323796 12.01508358 6.73323796 14 7 C14 7.66 14 8.32 14 9 C15.32 9 16.64 9 18 9 C18 9.99 18 10.98 18 12 C14.12750294 10.58220053 10.79251936 8.77015212 7.3125 6.5625 C5.88357422 5.66724609 5.88357422 5.66724609 4.42578125 4.75390625 C2 3 2 3 0 0 Z " fill="#676BA3" transform="translate(82,417)"/>
<path d="M0 0 C2 2 2 2 2 5 C1.34 5 0.68 5 0 5 C-0.103125 5.53625 -0.20625 6.0725 -0.3125 6.625 C-1.19428339 9.6711608 -2.41416174 12.25527994 -4 15 C-4.99 15.33 -5.98 15.66 -7 16 C-7 11.34343175 -5.8886067 9.67413957 -3.5 5.75 C-2.8503125 4.67234375 -2.200625 3.5946875 -1.53125 2.484375 C-1.0259375 1.66453125 -0.520625 0.8446875 0 0 Z " fill="#48509B" transform="translate(350,313)"/>
<path d="M0 0 C0.66 0 1.32 0 2 0 C1.67 1.32 1.34 2.64 1 4 C-0.98 4 -2.96 4 -5 4 C-5 4.66 -5 5.32 -5 6 C-7.64 6 -10.28 6 -13 6 C-12.79375 6.61875 -12.5875 7.2375 -12.375 7.875 C-12.25125 8.57625 -12.1275 9.2775 -12 10 C-12.66 10.66 -13.32 11.32 -14 12 C-14.625 9.125 -14.625 9.125 -15 6 C-12.43523996 3.43523996 -10.4526075 3.23772114 -6.9375 2.4375 C-3.15987482 1.83882639 -3.15987482 1.83882639 0 0 Z " fill="#475692" transform="translate(241,288)"/>
<path d="M0 0 C0.66 0.33 1.32 0.66 2 1 C1.67 1.66 1.34 2.32 1 3 C0.01 3 -0.98 3 -2 3 C-2.185625 3.763125 -2.37125 4.52625 -2.5625 5.3125 C-4.61089522 9.14210845 -6.93999777 9.73999931 -11 11 C-13.4375 10.6875 -13.4375 10.6875 -15 10 C-14.34 10 -13.68 10 -13 10 C-13 9.34 -13 8.68 -13 8 C-10.90043111 6.50073038 -8.8271391 5.14353977 -6.625 3.8125 C-6.02171875 3.43158203 -5.4184375 3.05066406 -4.796875 2.65820312 C-3.23780048 1.70370306 -1.62150526 0.84409978 0 0 Z " fill="#656AA2" transform="translate(98,55)"/>
<path d="M0 0 C0.66 0 1.32 0 2 0 C2.83986084 1.93467942 3.67168027 3.87285129 4.5 5.8125 C5.19609375 7.43091797 5.19609375 7.43091797 5.90625 9.08203125 C7 12 7 12 7 15 C7.66 15 8.32 15 9 15 C9 16.98 9 18.96 9 21 C3.66209928 15.28082066 0.81408433 7.73380114 0 0 Z " fill="#525998" transform="translate(58,378)"/>
<path d="M0 0 C5.35514317 2.96293636 10.6931372 5.95137669 16 9 C15.34 9.66 14.68 10.32 14 11 C10 11 10 11 7.9375 9.0625 C7.298125 8.381875 6.65875 7.70125 6 7 C5.01 6.67 4.02 6.34 3 6 C3 5.34 3 4.68 3 4 C2.01 3.67 1.02 3.34 0 3 C0 2.01 0 1.02 0 0 Z " fill="#62689F" transform="translate(234,342)"/>
<path d="M0 0 C5.28 0 10.56 0 16 0 C9.38642409 4.40905061 0.72822046 4.25338428 -7 4 C-7 3.67 -7 3.34 -7 3 C-5.5459375 2.814375 -5.5459375 2.814375 -4.0625 2.625 C-2.5465625 2.315625 -2.5465625 2.315625 -1 2 C-0.67 1.34 -0.34 0.68 0 0 Z " fill="#454B8F" transform="translate(387,433)"/>
<path d="M0 0 C1.10312408 2.75781019 1.07561442 3.80925835 -0.0390625 6.62109375 C-2.91920305 11.73582611 -5.51266269 16.17256523 -10 20 C-9.29228053 16.31985875 -7.87103847 13.23833582 -6 10 C-5.01 9.67 -4.02 9.34 -3 9 C-3 7.35 -3 5.7 -3 4 C-2.01 3.67 -1.02 3.34 0 3 C0 2.01 0 1.02 0 0 Z " fill="#62679C" transform="translate(333,299)"/>
<path d="M0 0 C0.33 0.66 0.66 1.32 1 2 C0.67 2.99 0.34 3.98 0 5 C-0.99 5 -1.98 5 -3 5 C-3 5.99 -3 6.98 -3 8 C-4.390625 9.421875 -4.390625 9.421875 -6.25 10.75 C-6.85328125 11.19859375 -7.4565625 11.6471875 -8.078125 12.109375 C-10.47352178 13.21943692 -11.56754322 12.88257281 -14 12 C-12.86111328 11.07767578 -12.86111328 11.07767578 -11.69921875 10.13671875 C-10.70535156 9.32847656 -9.71148437 8.52023437 -8.6875 7.6875 C-7.70136719 6.88699219 -6.71523438 6.08648437 -5.69921875 5.26171875 C-3.68397834 3.57311644 -1.80511991 1.90369301 0 0 Z " fill="#5B5F9A" transform="translate(270,269)"/>
<path d="M0 0 C-9.22551253 7.66742597 -9.22551253 7.66742597 -15 9 C-15 8.01 -15 7.02 -15 6 C-14.443125 5.7525 -13.88625 5.505 -13.3125 5.25 C-10.6006765 3.78414946 -8.3847366 1.94544301 -6 0 C-3.50907189 -1.24546405 -2.58919267 -0.7767578 0 0 Z " fill="#60639B" transform="translate(254,259)"/>
<path d="M0 0 C0.66 1.98 1.32 3.96 2 6 C1.01 6 0.02 6 -1 6 C-1 4.68 -1 3.36 -1 2 C-7.22414458 3.38810249 -7.22414458 3.38810249 -13 6 C-12.67012361 3.52592708 -12.42027913 2.3362233 -10.4375 0.75 C-6.89085382 -0.34127575 -3.70471601 -0.12349053 0 0 Z " fill="#6D73A4" transform="translate(171,162)"/>
<path d="M0 0 C0.66 0 1.32 0 2 0 C2 1.32 2 2.64 2 4 C1.34 4 0.68 4 0 4 C0 6.64 0 9.28 0 12 C0.66 12 1.32 12 2 12 C2.33 13.65 2.66 15.3 3 17 C2.34 17 1.68 17 1 17 C-2.44789032 13.02166501 -2.32329301 9.2121456 -2.30078125 4.20703125 C-2 2 -2 2 0 0 Z " fill="#4D5294" transform="translate(337,220)"/>
<path d="M0 0 C-0.66 0 -1.32 0 -2 0 C-2 0.66 -2 1.32 -2 2 C-2.66 2 -3.32 2 -4 2 C-6.13391403 8.25948114 -6.58955515 14.42208127 -7 21 C-7.33 21 -7.66 21 -8 21 C-8.05420701 18.43721301 -8.09377007 15.87558517 -8.125 13.3125 C-8.15013672 12.2306543 -8.15013672 12.2306543 -8.17578125 11.12695312 C-8.21352105 6.99444537 -8.09236267 3.62352873 -6 0 C-3 -1 -3 -1 0 0 Z " fill="#3E4380" transform="translate(244,131)"/>
<path d="M0 0 C0.495 0.639375 0.99 1.27875 1.5 1.9375 C4.87457208 6.0713508 8.43596883 10.02939246 12 14 C11.01 14.495 11.01 14.495 10 15 C5.99352249 13.6645075 5.24255364 11.47234113 3 8 C2.34 7.67 1.68 7.34 1 7 C1 5.68 1 4.36 1 3 C0.34 3 -0.32 3 -1 3 C-0.67 2.01 -0.34 1.02 0 0 Z " fill="#5D659C" transform="translate(148,255)"/>
<path d="M0 0 C1.77608134 3.22011269 2.73551098 6.37505157 3.625 9.9375 C4.01558594 11.46697266 4.01558594 11.46697266 4.4140625 13.02734375 C4.95696612 15.78167479 5.1132847 18.20392763 5 21 C4.34 21 3.68 21 3 21 C1.67770811 18.35541621 1.90322806 16.32238699 1.9375 13.375 C1.94652344 12.37210938 1.95554687 11.36921875 1.96484375 10.3359375 C1.98224609 9.17964844 1.98224609 9.17964844 2 8 C1.34 8 0.68 8 0 8 C0 5.36 0 2.72 0 0 Z " fill="#5E629C" transform="translate(455,98)"/>
<path d="M0 0 C0.33 0.99 0.66 1.98 1 3 C-0.98 3.99 -0.98 3.99 -3 5 C-3 5.66 -3 6.32 -3 7 C-6.08809695 8.76462683 -7.23312136 9 -11 9 C-10.4375 7.125 -10.4375 7.125 -9 5 C-5.375 3.75 -5.375 3.75 -2 3 C-2 2.34 -2 1.68 -2 1 C-1.34 0.67 -0.68 0.34 0 0 Z " fill="#585F99" transform="translate(370,250)"/>
<path d="M0 0 C1.10789535 4.05308333 1.33731267 8.07111374 1.5625 12.25 C1.60568359 12.99507812 1.64886719 13.74015625 1.69335938 14.5078125 C1.79896725 16.338349 1.89994201 18.16915176 2 20 C1.34 19.67 0.68 19.34 0 19 C0 17.35 0 15.7 0 14 C-0.66 14 -1.32 14 -2 14 C-2.05437607 12.41705218 -2.09296271 10.83355744 -2.125 9.25 C-2.14820313 8.36828125 -2.17140625 7.4865625 -2.1953125 6.578125 C-1.99139502 3.8864142 -1.36551721 2.30095026 0 0 Z " fill="#5F639E" transform="translate(315,219)"/>
<path d="M0 0 C1.98 0 3.96 0 6 0 C6.268125 0.61875 6.53625 1.2375 6.8125 1.875 C7.95556848 4.2995233 7.95556848 4.2995233 11 6 C11 6.99 11 7.98 11 9 C10.34 9 9.68 9 9 9 C9 8.34 9 7.68 9 7 C8.46375 6.731875 7.9275 6.46375 7.375 6.1875 C4.58333333 4.79166667 1.79166667 3.39583333 -1 2 C-0.67 1.34 -0.34 0.68 0 0 Z " fill="#40488A" transform="translate(274,142)"/>
<path d="M0 0 C0.33 0 0.66 0 1 0 C1.22424141 7.36259293 0.90120099 13.87049629 -1 21 C-1.33 21 -1.66 21 -2 21 C-2.22424141 13.63740707 -1.90120099 7.12950371 0 0 Z " fill="#5A6097" transform="translate(57,104)"/>
<path d="M0 0 C0.66 0 1.32 0 2 0 C2 1.32 2 2.64 2 4 C2.99 4 3.98 4 5 4 C5 5.32 5 6.64 5 8 C5.66 8 6.32 8 7 8 C7 8.99 7 9.98 7 11 C7.66 11 8.32 11 9 11 C8.67 12.32 8.34 13.64 8 15 C6.84372186 13.44521347 5.7003781 11.88080281 4.5625 10.3125 C3.92441406 9.44238281 3.28632813 8.57226562 2.62890625 7.67578125 C1.01028351 5.01689258 0.3916038 3.06112831 0 0 Z " fill="#4F5597" transform="translate(230,304)"/>
<path d="M0 0 C6.97669157 -0.39325819 12.51656189 0.36903961 19 3 C19 3.33 19 3.66 19 4 C12.50149789 3.48446121 6.33773468 2.53332291 0 1 C0 0.67 0 0.34 0 0 Z " fill="#404E8F" transform="translate(113,433)"/>
<path d="M0 0 C0.99 0.33 1.98 0.66 3 1 C1.54782324 2.50596108 0.08807139 4.00462104 -1.375 5.5 C-2.18710937 6.3353125 -2.99921875 7.170625 -3.8359375 8.03125 C-6 10 -6 10 -8 10 C-7.67 8.35 -7.34 6.7 -7 5 C-5.68 4.67 -4.36 4.34 -3 4 C-3 3.34 -3 2.68 -3 2 C-2.01 2 -1.02 2 0 2 C0 1.34 0 0.68 0 0 Z " fill="#5D649E" transform="translate(436,411)"/>
<path d="M0 0 C1.60517097 0.08733576 3.20921662 0.19552224 4.8125 0.3125 C6.15248047 0.39951172 6.15248047 0.39951172 7.51953125 0.48828125 C10.36088358 1.07445 11.34087801 1.64230033 13 4 C13.1875 7.6875 13.1875 7.6875 13 11 C12.67 11 12.34 11 12 11 C11.67 8.36 11.34 5.72 11 3 C7.37 3 3.74 3 0 3 C0 2.01 0 1.02 0 0 Z " fill="#5A6097" transform="translate(194,291)"/>
<path d="M0 0 C1.35304209 4.05912626 0.15216503 5.77149591 -1.4375 9.6875 C-2.14712891 11.45673828 -2.14712891 11.45673828 -2.87109375 13.26171875 C-3.24363281 14.16535156 -3.61617188 15.06898438 -4 16 C-4.33 16 -4.66 16 -5 16 C-5.59218637 10.2261829 -3.62299209 6.00369977 -1 1 C-0.67 0.67 -0.34 0.34 0 0 Z " fill="#6268A2" transform="translate(457,376)"/>
<path d="M0 0 C4.875 4.625 4.875 4.625 6 8 C6.66 8 7.32 8 8 8 C8 8.66 8 9.32 8 10 C8.66 10 9.32 10 10 10 C9.67 10.66 9.34 11.32 9 12 C5.03003461 9.90474049 2.47940063 7.76501577 0 4 C0 2.68 0 1.36 0 0 Z " fill="#60649D" transform="translate(216,323)"/>
<path d="M0 0 C0.99 0 1.98 0 3 0 C6.1894996 4.7842494 7.26863974 8.22424557 7 14 C6.34 14 5.68 14 5 14 C4.80664062 13.40832031 4.61328125 12.81664062 4.4140625 12.20703125 C3.05585281 8.0853355 1.67949415 4.0049476 0 0 Z " fill="#5E639B" transform="translate(374,209)"/>
<path d="M0 0 C0 0.66 0 1.32 0 2 C-0.68707031 2.10957031 -1.37414062 2.21914063 -2.08203125 2.33203125 C-2.98308594 2.49058594 -3.88414063 2.64914063 -4.8125 2.8125 C-5.70582031 2.96332031 -6.59914063 3.11414062 -7.51953125 3.26953125 C-10.2273286 4.06694559 -11.09815878 5.00970105 -13 7 C-15.6875 6.6875 -15.6875 6.6875 -18 6 C-17 4 -17 4 -14.453125 2.9296875 C-13.39609375 2.58164062 -12.3390625 2.23359375 -11.25 1.875 C-9.67992188 1.34519531 -9.67992188 1.34519531 -8.078125 0.8046875 C-5.21753424 0.05686809 -2.93488144 -0.16304897 0 0 Z " fill="#5E639F" transform="translate(120,49)"/>
<path d="M0 0 C0.99 0.33 1.98 0.66 3 1 C1.61082658 3.77834684 0.04236447 3.99642986 -2.8125 5.125 C-3.68519531 5.47820312 -4.55789063 5.83140625 -5.45703125 6.1953125 C-8 7 -8 7 -12 7 C-12 6.34 -12 5.68 -12 5 C-10.75336669 4.49166409 -9.50250613 3.99368855 -8.25 3.5 C-7.55390625 3.2215625 -6.8578125 2.943125 -6.140625 2.65625 C-4 2 -4 2 0 2 C0 1.34 0 0.68 0 0 Z " fill="#515690" transform="translate(415,426)"/>
<path d="M0 0 C2.74501997 3.61186839 5.37012014 7.30395263 8 11 C7.01 11.33 6.02 11.66 5 12 C5 11.34 5 10.68 5 10 C2.525 9.01 2.525 9.01 0 8 C0 5.36 0 2.72 0 0 Z " fill="#5D649B" transform="translate(317,239)"/>
<path d="M0 0 C1.99965715 0.03703069 4.00056665 0.04760556 6 0 C5.67 0.66 5.34 1.32 5 2 C0.74199462 3.41933513 -3.22911538 3.72651677 -7.4375 2 C-7.953125 1.67 -8.46875 1.34 -9 1 C-5.23802798 -1.50798135 -4.29726444 -0.84260087 0 0 Z " fill="#505796" transform="translate(349,237)"/>
<path d="M0 0 C0.66 0 1.32 0 2 0 C2.144375 1.134375 2.28875 2.26875 2.4375 3.4375 C2.61171478 6.80777201 2.61171478 6.80777201 4 8 C3.82364548 10.69082872 3.38164079 13.32851446 3 16 C2.67 16 2.34 16 2 16 C0.40837921 10.42932723 -0.20674944 5.78898419 0 0 Z " fill="#565B9A" transform="translate(158,217)"/>
<path d="M0 0 C0 0.66 0 1.32 0 2 C-0.60328125 2.12117187 -1.2065625 2.24234375 -1.828125 2.3671875 C-2.62734375 2.53476563 -3.4265625 2.70234375 -4.25 2.875 C-5.03890625 3.03742188 -5.8278125 3.19984375 -6.640625 3.3671875 C-8.96831144 3.99150075 -10.89031952 4.84838542 -13 6 C-13.33 5.01 -13.66 4.02 -14 3 C-9.43672206 -0.53286034 -5.50366792 -0.32374517 0 0 Z " fill="#40478A" transform="translate(186,128)"/>
<path d="M0 0 C0.99 0 1.98 0 3 0 C3 0.66 3 1.32 3 2 C3.99 2 4.98 2 6 2 C8.1875 3.875 8.1875 3.875 10 6 C10 6.66 10 7.32 10 8 C5.00724943 6.72278474 2.42388092 4.82669043 -1 1 C-0.67 0.67 -0.34 0.34 0 0 Z " fill="#44498F" transform="translate(181,260)"/>
<path d="M0 0 C0.66 0 1.32 0 2 0 C4.6553906 4.53629227 5.4956328 7.74629229 5 13 C4.01 14.485 4.01 14.485 3 16 C3 12.37 3 8.74 3 5 C2.01 4.67 1.02 4.34 0 4 C0 2.68 0 1.36 0 0 Z " fill="#555C94" transform="translate(355,218)"/>
<path d="M0 0 C4.62 2.31 9.24 4.62 14 7 C14 7.33 14 7.66 14 8 C7.83543922 7.61471495 4.01372252 5.52913975 -1 2 C-0.67 1.34 -0.34 0.68 0 0 Z " fill="#5B6295" transform="translate(170,279)"/>
<path d="M0 0 C0.99 0.99 1.98 1.98 3 3 C-1.95 2.67 -6.9 2.34 -12 2 C-8.22170186 -1.77829814 -4.93987197 -1.05854399 0 0 Z " fill="#6F72A9" transform="translate(352,215)"/>
<path d="M0 0 C0.99 0.33 1.98 0.66 3 1 C1.90220176 2.15193623 0.79650554 3.29634937 -0.3125 4.4375 C-0.92738281 5.07558594 -1.54226563 5.71367187 -2.17578125 6.37109375 C-4 8 -4 8 -7 9 C-7.33 7.68 -7.66 6.36 -8 5 C-6.576875 4.87625 -6.576875 4.87625 -5.125 4.75 C-1.89538209 4.34925077 -1.89538209 4.34925077 -0.625 1.9375 C-0.41875 1.298125 -0.2125 0.65875 0 0 Z " fill="#474C8A" transform="translate(320,319)"/>
<path d="M0 0 C1.32 0.33 2.64 0.66 4 1 C4 2.65 4 4.3 4 6 C4.66 6 5.32 6 6 6 C6 8.31 6 10.62 6 13 C4.43926745 10.65890118 3.13626133 8.43666597 1.875 5.9375 C1.34519531 4.89916016 1.34519531 4.89916016 0.8046875 3.83984375 C0 2 0 2 0 0 Z " fill="#4F5695" transform="translate(285,151)"/>
<path d="M0 0 C2.67901932 2.31881505 3.66204403 4.31814468 4.6875 7.6875 C4.93886719 8.49574219 5.19023437 9.30398437 5.44921875 10.13671875 C5.63097656 10.75160156 5.81273437 11.36648437 6 12 C5.34 12.66 4.68 13.32 4 14 C4 12.68 4 11.36 4 10 C3.34 10 2.68 10 2 10 C0.68373308 6.38026598 0 3.90432869 0 0 Z " fill="#59609B" transform="translate(449,86)"/>
<path d="M0 0 C1.32 0 2.64 0 4 0 C3.54917531 1.46067199 3.08906463 2.91848032 2.625 4.375 C2.36976563 5.18710938 2.11453125 5.99921875 1.8515625 6.8359375 C1 9 1 9 -1 11 C-0.67 7.37 -0.34 3.74 0 0 Z " fill="#414F8C" transform="translate(265,233)"/>
<path d="M0 0 C0.8125 1.6875 0.8125 1.6875 1 4 C-1.25 6.75 -1.25 6.75 -4 9 C-4.99 9 -5.98 9 -7 9 C-5.44499019 5.18315774 -2.96404505 2.80804268 0 0 Z " fill="#5C61A2" transform="translate(341,328)"/>
<path d="M0 0 C2.35333796 4.70667591 2.17102038 6.8693886 2 12 C1.01 12.33 0.02 12.66 -1 13 C-0.67 8.71 -0.34 4.42 0 0 Z " fill="#5F649E" transform="translate(357,280)"/>
<path d="M0 0 C0.33 0 0.66 0 1 0 C0.50769231 7.38461538 0.50769231 7.38461538 -2.0625 10.5 C-2.701875 10.995 -3.34125 11.49 -4 12 C-3.53439347 7.25081338 -2.83067342 3.89217595 0 0 Z " fill="#404588" transform="translate(284,249)"/>
<path d="M0 0 C0.66 0.99 1.32 1.98 2 3 C1.34 3 0.68 3 0 3 C0 4.65 0 6.3 0 8 C-0.66 8 -1.32 8 -2 8 C-2.33 8.99 -2.66 9.98 -3 11 C-3.99 10.67 -4.98 10.34 -6 10 C-4.02 6.7 -2.04 3.4 0 0 Z " fill="#585B9E" transform="translate(377,239)"/>
<path d="M0 0 C0.99 0.33 1.98 0.66 3 1 C0.69 3.97 -1.62 6.94 -4 10 C-4.66 9.67 -5.32 9.34 -6 9 C-5.01595171 6.04785514 -4.01178391 4.33366933 -2 2 C-1.34 2 -0.68 2 0 2 C0 1.34 0 0.68 0 0 Z " fill="#515897" transform="translate(323,202)"/>
<path d="M0 0 C0.66 0 1.32 0 2 0 C2.08159574 4.16138263 1.98248524 7.9472484 1 12 C0.34 11.67 -0.32 11.34 -1 11 C-0.67 7.37 -0.34 3.74 0 0 Z " fill="#5D609F" transform="translate(458,361)"/>
<path d="M0 0 C0 0.66 0 1.32 0 2 C-0.99 2 -1.98 2 -3 2 C-3 2.99 -3 3.98 -3 5 C-5.31 5.66 -7.62 6.32 -10 7 C-10 6.01 -10 5.02 -10 4 C-8.71086513 3.32845067 -7.41859796 2.66291141 -6.125 2 C-5.40570313 1.62875 -4.68640625 1.2575 -3.9453125 0.875 C-2 0 -2 0 0 0 Z " fill="#5B649C" transform="translate(256,282)"/>
<path d="M0 0 C2.1640625 -0.29296875 2.1640625 -0.29296875 4.625 -0.1875 C5.44226563 -0.16042969 6.25953125 -0.13335937 7.1015625 -0.10546875 C8.04128906 -0.05326172 8.04128906 -0.05326172 9 0 C9 0.66 9 1.32 9 2 C5.37 2.33 1.74 2.66 -2 3 C-1.34 2.01 -0.68 1.02 0 0 Z " fill="#42468B" transform="translate(340,193)"/>
<path d="M0 0 C1.8125 0.1875 1.8125 0.1875 4 1 C5.8125 3.375 5.8125 3.375 7 6 C6.67 6.99 6.34 7.98 6 9 C4.99406757 7.8803014 3.9954151 6.7540588 3 5.625 C2.443125 4.99851562 1.88625 4.37203125 1.3125 3.7265625 C0 2 0 2 0 0 Z " fill="#5B5E98" transform="translate(70,403)"/>
<path d="M0 0 C0.99 0 1.98 0 3 0 C3.33 2.64 3.66 5.28 4 8 C3.01 8 2.02 8 1 8 C-0.35439668 5.29120665 -0.06501451 2.99066732 0 0 Z " fill="#3C4288" transform="translate(67,394)"/>
<path d="M0 0 C0 0.99 0 1.98 0 3 C-6.96428571 6.34821429 -6.96428571 6.34821429 -11 5 C-9.54462432 4.16151196 -8.08559627 3.32936066 -6.625 2.5 C-5.81289063 2.0359375 -5.00078125 1.571875 -4.1640625 1.09375 C-2 0 -2 0 0 0 Z " fill="#63679B" transform="translate(321,347)"/>
<path d="M0 0 C1 3 1 3 -0.0625 5.1875 C-2 7 -2 7 -5.1875 7.25 C-6.115625 7.1675 -7.04375 7.085 -8 7 C-5.31158141 4.74754119 -3.35358125 3.11786042 0 2 C0 1.34 0 0.68 0 0 Z " fill="#474D97" transform="translate(259,167)"/>
<path d="M0 0 C0.99 0.33 1.98 0.66 3 1 C1 5 -1 9 -3 13 C-3.33 11.02 -3.66 9.04 -4 7 C-3.01 6.67 -2.02 6.34 -1 6 C-0.67 4.02 -0.34 2.04 0 0 Z " fill="#7477A2" transform="translate(141,153)"/>
<path d="M0 0 C0 0.66 0 1.32 0 2 C-3.63 2.66 -7.26 3.32 -11 4 C-11.33 3.34 -11.66 2.68 -12 2 C-7.8794254 0.00214565 -4.54805635 -0.17835515 0 0 Z " fill="#505D92" transform="translate(164,141)"/>
<path d="M0 0 C3.33557632 2.9905167 5.15083921 5.93184627 7 10 C6.01 10 5.02 10 4 10 C1.09677182 6.35022743 0 4.74147821 0 0 Z " fill="#5F649A" transform="translate(442,76)"/>
<path d="M0 0 C-1.55500981 3.81684226 -4.03595495 6.19195732 -7 9 C-7 8.01 -7 7.02 -7 6 C-6.34 6 -5.68 6 -5 6 C-4.87625 5.195625 -4.7525 4.39125 -4.625 3.5625 C-4.41875 2.716875 -4.2125 1.87125 -4 1 C-2 0 -2 0 0 0 Z " fill="#6469A4" transform="translate(446,402)"/>
<path d="M0 0 C1.423125 0.2165625 1.423125 0.2165625 2.875 0.4375 C7.56740347 1.11197278 12.28134412 1.55376896 17 2 C17 2.33 17 2.66 17 3 C12.38 3 7.76 3 3 3 C3 2.34 3 1.68 3 1 C2.01 0.67 1.02 0.34 0 0 Z " fill="#2C3683" transform="translate(382,48)"/>
<path d="M0 0 C0.66 0 1.32 0 2 0 C0.79157144 4.43090471 -0.51668565 6.98112756 -4 10 C-3.43697042 6.05879291 -2.3208055 3.2491277 0 0 Z " fill="#5D619D" transform="translate(450,392)"/>
<path d="M0 0 C2.17854707 3.2678206 3.49760034 6.38058265 5 10 C4.01 10.33 3.02 10.66 2 11 C0.19769832 7.17010894 -0.19622241 4.21878192 0 0 Z " fill="#696CA4" transform="translate(211,312)"/>
<path d="M0 0 C3.3 0.33 6.6 0.66 10 1 C10 1.33 10 1.66 10 2 C6.37 2.33 2.74 2.66 -1 3 C-0.67 2.01 -0.34 1.02 0 0 Z " fill="#3F4599" transform="translate(221,270)"/>
<path d="M0 0 C0.99 0 1.98 0 3 0 C1.68775452 3.93673644 0.08089673 6.22719294 -3 9 C-3.33 8.01 -3.66 7.02 -4 6 C-3.01 6 -2.02 6 -1 6 C-0.67 4.02 -0.34 2.04 0 0 Z " fill="#585E98" transform="translate(261,244)"/>
<path d="M0 0 C2.97 0.495 2.97 0.495 6 1 C6.33 1.99 6.66 2.98 7 4 C3.7 3.67 0.4 3.34 -3 3 C-2.01 2.67 -1.02 2.34 0 2 C0 1.34 0 0.68 0 0 Z " fill="#545596" transform="translate(263,162)"/>
<path d="M0 0 C3.7952131 1.49097658 5.61042731 3.75700849 8 7 C6.35 6.67 4.7 6.34 3 6 C3 5.34 3 4.68 3 4 C2.01 3.67 1.02 3.34 0 3 C0 2.01 0 1.02 0 0 Z " fill="#595F97" transform="translate(430,65)"/>
<path d="M0 0 C2.8125 -0.25 2.8125 -0.25 6 0 C7.875 2 7.875 2 9 4 C5.625 3.6875 5.625 3.6875 2 3 C1.34 2.01 0.68 1.02 0 0 Z " fill="#4A5593" transform="translate(82,417)"/>
<path d="M0 0 C1.99097846 2.98646769 2.94124926 5.59687262 4 9 C3.01 9 2.02 9 1 9 C-0.61949011 6.42786866 -1.04408751 5.32330841 -0.625 2.25 C-0.41875 1.5075 -0.2125 0.765 0 0 Z " fill="#59619B" transform="translate(207,303)"/>
<path d="M0 0 C-0.33 1.32 -0.66 2.64 -1 4 C-4.3 4 -7.6 4 -11 4 C-3 0 -3 0 0 0 Z " fill="#565A97" transform="translate(243,288)"/>
<path d="M0 0 C0.33 0 0.66 0 1 0 C1.125 6.625 1.125 6.625 0 10 C-0.99 10 -1.98 10 -3 10 C-2.01 6.7 -1.02 3.4 0 0 Z " fill="#525C97" transform="translate(288,238)"/>
<path d="M0 0 C0.99 0.33 1.98 0.66 3 1 C1.87926138 1.83905565 0.75325453 2.67107831 -0.375 3.5 C-1.00148438 3.9640625 -1.62796875 4.428125 -2.2734375 4.90625 C-4 6 -4 6 -6 6 C-6 5.01 -6 4.02 -6 3 C-4.02 2.67 -2.04 2.34 0 2 C0 1.34 0 0.68 0 0 Z " fill="#656AA1" transform="translate(425,421)"/>
<path d="M0 0 C2.00841268 0.01421885 4.01537247 0.13420475 6.01953125 0.265625 C3.70658305 2.5785732 2.5404825 2.76143475 -0.60546875 3.390625 C-1.42273438 3.55820312 -2.24 3.72578125 -3.08203125 3.8984375 C-4.02175781 4.08019531 -4.02175781 4.08019531 -4.98046875 4.265625 C-3.72152968 1.74774686 -2.88459378 0.38688832 0 0 Z " fill="#535B92" transform="translate(296.98046875,332.734375)"/>
<path d="M0 0 C2.16874252 0.50603992 3.99967627 0.99983813 6 2 C6 2.66 6 3.32 6 4 C7.32 4.33 8.64 4.66 10 5 C9.34 5.66 8.68 6.32 8 7 C6.66382648 6.02471263 5.3311249 5.04466681 4 4.0625 C3.2575 3.51722656 2.515 2.97195313 1.75 2.41015625 C1.1725 1.94480469 0.595 1.47945313 0 1 C0 0.67 0 0.34 0 0 Z " fill="#595F96" transform="translate(244,324)"/>
<path d="M0 0 C0.33 0 0.66 0 1 0 C1.3125 2.1875 1.3125 2.1875 1 5 C-1.5 7.8125 -1.5 7.8125 -4 10 C-3.29445932 6.33118845 -1.72264494 3.29549466 0 0 Z " fill="#485086" transform="translate(327,309)"/>
<path d="M0 0 C-0.33 1.32 -0.66 2.64 -1 4 C-1.33 3.01 -1.66 2.02 -2 1 C-3.98 1.33 -5.96 1.66 -8 2 C-8.33 1.34 -8.66 0.68 -9 0 C-5.93109813 -1.53445094 -3.29905734 -0.54984289 0 0 Z " fill="#272F7B" transform="translate(270,166)"/>
<path d="M0 0 C-0.66 0 -1.32 0 -2 0 C-2 0.66 -2 1.32 -2 2 C-2.66 2 -3.32 2 -4 2 C-4.33 3.65 -4.66 5.3 -5 7 C-6.0625 5.1875 -6.0625 5.1875 -7 3 C-6.67 2.01 -6.34 1.02 -6 0 C-3 -1 -3 -1 0 0 Z " fill="#5E649C" transform="translate(244,131)"/>
<path d="M0 0 C2.97 0.99 5.94 1.98 9 3 C9 3.33 9 3.66 9 4 C2.25 4.125 2.25 4.125 0 3 C0 2.01 0 1.02 0 0 Z " fill="#5B6092" transform="translate(405,51)"/>
<path d="M0 0 C1.65 0 3.3 0 5 0 C-0.14285714 4.42857143 -0.14285714 4.42857143 -4 5 C-4.33 4.34 -4.66 3.68 -5 3 C-3.68 3 -2.36 3 -1 3 C-0.67 2.01 -0.34 1.02 0 0 Z " fill="#575A8F" transform="translate(308,328)"/>
<path d="M0 0 C0.53625 0.2475 1.0725 0.495 1.625 0.75 C-1.375 2.75 -1.375 2.75 -5.375 2.75 C-5.375 3.41 -5.375 4.07 -5.375 4.75 C-6.365 4.42 -7.355 4.09 -8.375 3.75 C-2.95961538 -0.31153846 -2.95961538 -0.31153846 0 0 Z " fill="#424A92" transform="translate(252.375,258.25)"/>
<path d="M0 0 C2.5 1.375 2.5 1.375 5 3 C5 3.66 5 4.32 5 5 C5.66 5 6.32 5 7 5 C6.67 5.66 6.34 6.32 6 7 C4.02 6.01 2.04 5.02 0 4 C0 2.68 0 1.36 0 0 Z " fill="#404785" transform="translate(325,251)"/>
<path d="M0 0 C0.33 0.66 0.66 1.32 1 2 C0.0625 4.125 0.0625 4.125 -1 6 C-2.32 6 -3.64 6 -5 6 C-4.75 4.125 -4.75 4.125 -4 2 C-1.9375 0.75 -1.9375 0.75 0 0 Z " fill="#49518C" transform="translate(189,171)"/>
<path d="M0 0 C0.66 0 1.32 0 2 0 C4 2 4 2 4.1953125 3.9453125 C4.13020833 5.96354167 4.06510417 7.98177083 4 10 C3.67 10 3.34 10 3 10 C3 8.35 3 6.7 3 5 C1.68 4.34 0.36 3.68 -1 3 C-0.67 2.01 -0.34 1.02 0 0 Z " fill="#353D89" transform="translate(451,96)"/>
<path d="M0 0 C1.5 1.375 1.5 1.375 3 3 C3 3.66 3 4.32 3 5 C1.35 5 -0.3 5 -2 5 C-2 3.68 -2 2.36 -2 1 C-1.34 0.67 -0.68 0.34 0 0 Z " fill="#1C257A" transform="translate(261,328)"/>
<path d="M0 0 C2.475 0.495 2.475 0.495 5 1 C5.33 2.98 5.66 4.96 6 7 C1.125 2.25 1.125 2.25 0 0 Z " fill="#4A508F" transform="translate(169,250)"/>
<path d="M0 0 C0.66 0 1.32 0 2 0 C2.66 3.3 3.32 6.6 4 10 C1.07490914 6.09987886 0.52464905 4.61691161 0 0 Z " fill="#555B8E" transform="translate(161,233)"/>
<path d="M0 0 C2 0 2 0 3.6875 1.25 C4.120625 1.8275 4.55375 2.405 5 3 C4.6875 5.1875 4.6875 5.1875 4 7 C2.35 5.02 0.7 3.04 -1 1 C-0.67 0.67 -0.34 0.34 0 0 Z " fill="#4D518F" transform="translate(367,199)"/>
<path d="M0 0 C0.28875 0.639375 0.5775 1.27875 0.875 1.9375 C1.82823451 4.15206079 1.82823451 4.15206079 4 5 C4 5.66 4 6.32 4 7 C4.66 7.33 5.32 7.66 6 8 C3.03 7.505 3.03 7.505 0 7 C0 4.69 0 2.38 0 0 Z " fill="#686FA4" transform="translate(238,166)"/>
<path d="M0 0 C-6.4 3.07692308 -6.4 3.07692308 -9.4375 2.6875 C-9.953125 2.460625 -10.46875 2.23375 -11 2 C-10.34 2 -9.68 2 -9 2 C-9 1.34 -9 0.68 -9 0 C-3.375 -1.125 -3.375 -1.125 0 0 Z " fill="#4D5498" transform="translate(94,63)"/>
<path d="M0 0 C1.32 0.66 2.64 1.32 4 2 C4 2.33 4 2.66 4 3 C-0.29 3 -4.58 3 -9 3 C-9 2.67 -9 2.34 -9 2 C-6.03 2 -3.06 2 0 2 C0 1.34 0 0.68 0 0 Z " fill="#262E92" transform="translate(253,46)"/>
<path d="M0 0 C1.98 0 3.96 0 6 0 C6 0.66 6 1.32 6 2 C6.99 2.33 7.98 2.66 9 3 C8.01 3.495 8.01 3.495 7 4 C4.64018187 3.06421005 2.30368736 2.06652192 0 1 C0 0.67 0 0.34 0 0 Z " fill="#4A4F8A" transform="translate(102,429)"/>
<path d="M0 0 C0.66 0 1.32 0 2 0 C2 0.66 2 1.32 2 2 C2.99 2 3.98 2 5 2 C4.67 3.98 4.34 5.96 4 8 C2.22293791 5.33440687 1.12451727 2.9719385 0 0 Z " fill="#555899" transform="translate(255,132)"/>
<path d="M0 0 C0.66 0.33 1.32 0.66 2 1 C1.3125 3.4375 1.3125 3.4375 0 6 C-2.625 6.8125 -2.625 6.8125 -5 7 C-3.35 4.69 -1.7 2.38 0 0 Z " fill="#6A73A6" transform="translate(77,70)"/>
<path d="M0 0 C3.37503669 1.1858237 5.64722731 2.27573689 8 5 C4.62537285 4.45276317 2.91765 3.9451 0 2 C0 1.34 0 0.68 0 0 Z " fill="#626B9F" transform="translate(420,58)"/>
</svg>
